<?xml version="1.0" encoding="utf-8"?>
<!-- Generator: Adobe Illustrator 22.0.1, SVG Export Plug-In . SVG Version: 6.00 Build 0)  -->
<svg version="1.1" id="레이어_1" xmlns="http://www.w3.org/2000/svg" xmlns:xlink="http://www.w3.org/1999/xlink" x="0px"
	 y="0px" viewBox="0 0 300 120" style="enable-background:new 0 0 300 120;" xml:space="preserve">
<style type="text/css">
	.st0{fill:#B5B5B6;}
	.st1{fill:#D60C18;}
	.st2{fill:none;}
	.st3{fill:#E60012;}
	.st4{fill:#EA5514;}
</style>
<g>
	<g>
		<path class="st0" d="M294.8,48.3c-0.1,0-0.1-0.1-0.2-0.1c-0.3-0.2-0.5-0.1-0.8-0.4c-0.3-0.2-0.4-0.6-0.7-0.8
			c-0.9-0.7-1.1-0.8-1.3-2c-0.7-1.1-2.1-2.3-2.6-3.6c-0.5-2.9-1.1-5.7-1.6-8.6c-0.8-2-2.1-4.4-3-6.3c-0.8-1.7-1-3.2-2-4.6
			c-1.1-1.5-3.4-2.2-4.6-3.6c-1.2-1.5-1.9-3.6-4.2-3.6c-0.8,0-0.9-0.1-1.5-0.6c-0.4-0.4-0.9-1.1-1.4-1.3c-1.3-0.6-3.1-0.1-4.4-0.1
			c-2.9,0-6.1-0.9-8.9,0c-1.7,0.6-2.6,2-3.9,2.6c-1.5,0.3-3.1,0.7-4.6,1c-1.2,0.5-2.5,1.8-3.6,2.3c-1.4,0.6-3.3,0.6-4.6,1.3
			c-1.3,0.7-2.1,2.5-3.3,3.3c-0.3,0-0.7,0-1,0c-0.1,0.3-0.2,0.7-0.3,1c-1.2,0.9-3.8,1.8-4.6,3c-0.1,0.5-0.2,1.1-0.3,1.6
			c-0.3,0.6-1,1.2-1.3,2c-2,0-8.8-0.5-9.9,0.3c-2.5,0.2-8.3,6.3-8.9,8.6c-0.4,1.6-0.5,2.7,0.1,4.3c0.6,1.4,1.6,2.9,3.1,3.4
			c0.9,0.3,1.9,0.5,2.7,0.9c1,0.5,1.1,1.1,2.3,1.3c1.1,0.1,1.3,0.7,2.3,1.2c1.4,0.7,1.5,2,2.7,2.8c1.5,1.1,3.2,1.5,4.3,3
			c0.8,1.1,0.9,2.2,2,3c-0.3,0.3-0.7,0.4-1,0.7c-0.2,0-0.4,0-0.7,0c-0.2-0.2-0.2-1.3-0.7-1.6c-2.6-1.9-14.4-4.2-18.4-2.6
			c-2.2,0.8-4.4,3.1-5.3,5.3c-0.2,1.2-0.4,2.4-0.7,3.6c-0.7,1.2-2.8,1.8-3.6,3c-0.3,1.1-0.7,2.2-1,3.3c-0.5,0-1.1,0-1.6,0
			c-0.4,0.2-0.3,0.9-0.7,1.3c-0.5,0.6-1.5,0.7-2,1.3c0,0.2,0,0.4,0,0.7c-0.4,0.3-0.9,0.7-1.3,1c0,0.2,0,0.4,0,0.7
			c-0.5,0.5-1.5,0.4-2,1c-1.4,1.8-2.2,4.3-3.3,6.3c-0.8,1.5-0.9,3-1.5,4.6c-0.9,2.5-2.4,5.1-1.5,7.8c0.7,2.3,2.7,4.6,5,5.3
			c4.1,1.3,9.2-1,12.1-3.9c1-1,1.4-3.5,3-3.9c0.9-0.2,1.8,0.6,2.5,0.9c0.8,0.4,1.7,0.6,2.5,0.6c0.9,0,0.9-0.5,1.7-0.9
			c0.3-0.1,1.1,0,1.4,0c0.9,0,1.7,0,2.6-0.1c4.7-0.8,11.2-2.8,13.9-7.1c0.1,0,0.2,0,0.3,0c-0.5,4-3.5,7.1-2.8,11.2
			c0.3,2.1,0.8,4.1,1.3,6.1c0.5,2.1,0.1,5.3,1.5,7c0.1,0.3,0.2,0.7,0.3,1c0.4,0,0.9,0,1.3,0c0.4,0,0.2-4.6,0-5.1
			c-0.5-1.2-1.2-2.1-0.9-3.5c0.3-1.5,0.9-2.6,0.5-4.2c-0.4-1.5-1-3-0.7-4.6c0.2-0.9,0.7-1.7,1.1-2.5c0.8-1.4,1-3,1.3-4.5
			c0.6-1.4,1.7-3,2.3-4.3c0.2-1.1,0.4-2.2,0.7-3.3c0.1-0.2,0.5-0.4,0.7-0.7c1.9,0.1,2.7,0.6,3.9,1c0.8,0.2,2.1-0.3,2.3-0.3
			c0.7,0.1,1.3,0.2,2,0.3c0,1.4,0,2.9,0,4.3c0.2,0,0.4,0,0.7,0c0.2,0.3,0.6,1.5,0.7,1.6c0.5,1.6-0.3,2.7,0.7,3.6c0,0.1,0,0.2,0,0.3
			c0.2,0,0.4,0,0.7,0c0-1.8-0.5-6.2,0-6.9c0-0.2,0-0.4,0-0.7c1.5,0,6.4,0.4,7.2,1c1.9,0,4.3-0.2,5.6,0.3c-0.1,1.4-0.3,4.4-0.7,4.9
			c-1.3,0.7-8.9-2.6-10.5-3.3c-0.3,1,0.1,2.3-0.3,3c0.3,0.8,1.5,1.7,2.3,2c0.7,0,1.3,0,2,0c0.3,0.5,0.7,1.1,1,1.6
			c1.4,0.9,4.5,1.4,6.3,2c0.4,1,0.7,4.5,1.3,5.3c0,1.1,0.2,2.7-0.3,3.3c-3,2.7-11.5,0.5-14.8-0.3c-1.8,0.2-3.5,0.4-5.3,0.7
			c0,0.1,0,0.2,0,0.3c-0.1,0-0.2,0-0.3,0c0,3.1,0.7,4.3,1.6,6.3c1.4,0.4,2.7,1.2,3.9,1.6c1,0.4,3.6,0.5,4.6,0.7
			c2.1-0.2,4.2-0.4,6.3-0.7c1.1,0.3,2.7,1.6,3.3,1.3c1.9-0.3,2.1-1.4,3.3-2.3c6.6-4.8,5.9-14.1,3.6-22.7c0-0.7,0-1.3,0-2
			c-1.1-4.3-0.8-8.6,2.3-10.5c-0.1-3.6-2.6-1.7-4.3-3.3c-0.1,0-0.2,0-0.3,0c0-0.1,0-0.2,0-0.3c1.4-0.4,1.4-1,2.3-1.6
			c1-0.7,2.6-1,3.6-1.6c1.1-1.2,2.2-2.4,3.3-3.6c1.5-1.1,3.8-1.8,4.9-3.3c2.3,0.8,4.6,1.5,6.9,2.3c1.6,0.4,3.1-0.4,3.9-0.7
			c1.1,0,2.2,0,3.3,0c1.4-0.4,2.5-1.3,3.6-2c0.2-0.9,0.8-1.6,1-2.3C299.7,55.3,297.6,50.1,294.8,48.3z M226.5,42.9
			c-0.3,1.5-0.4,3.1-0.7,4.6c-1.8,0-3.5-1.7-4.6-3c-0.6-0.7-1.2-1.5-1.8-2.2c-0.5-0.6-1.6-1.2-1.8-2.1c-0.2-0.6,0.2-1.3,0.3-1.8
			c0.3-1.3,0.2-2.4,1.8-2.5c2.6-0.1,5.2,0.1,7.4,1.4c0.5,0.3-0.3,4-0.4,4.6C226.6,42.3,226.5,42.6,226.5,42.9z M200.7,92.6
			c-0.1,0.1-1.6,0.3-1.6,0.3c-0.4,1.9-0.7,3.4-3,3.9c-1.9,1.6-5.8-0.2-6.3-2c-0.6-0.7-0.3-2.7-0.3-3.9c0-4.3,2.2-6.4,3.9-8.9
			c-0.2,0.4,0.8,2.9,0.9,3.4c0.7,2.5,2.1,4.8,4.5,5.8C199.3,91.4,201.4,92,200.7,92.6z M234.6,70.6c-1.2,2.7-3.7-0.5-4.9-0.3
			c-1,0.1-3.1,1.5-3.9,2c-0.2,0.6,0,0.3-0.3,0.7c0.3,3.4,2.4,7.7,5.9,7.9c-0.5,1.9-2.5,2.6-3.9,3.6c-0.2,0.3-0.4,0.7-0.7,1
			c-2.9,2-6.4,3.2-10.2,4.3c-1.6,0.5-5.3,0.6-6.3-0.3c-0.2-0.1-0.4-0.2-0.7-0.3c0.1-0.8,0-0.9,0.3-1.3c0.3-0.9,0.9-0.9,1.3-1.6
			c0.3,0,0.7,0,1,0c-0.1-1.1-0.2-2.2-0.3-3.3c-0.4-0.3-0.7-0.8-1-1.3c-1.9-0.1-4-0.5-5.3,0.7c-1.4,0.4-2,1.4-2.3,3
			c-1.8-0.8-1.2-4.2-1-6.3c0-0.3,1.2-1.5,1.4-1.9c0.4-0.6,0.7-1.3,1.1-1.9c0.8-1.4,2-2.5,3.2-3.6c0.7-0.6,1.3-1.1,1.9-1.7
			c0.6-0.6,0.7-1.4,1.2-2c0.5-0.5,1.1-1,1.7-1.4c1.3-0.8,2.8-1,4.2-1.3c1.5-0.3,3-0.7,4.5-0.7c2.2,0,4.3-0.5,6.5-0.8
			c1.4-0.2,3.8-0.6,4.9,0.4C234.5,64.9,236.1,68.9,234.6,70.6z M245.2,74.2c-0.3,0.7,0.3,1.8,0.3,2c0,0.3-0.3,1.2-0.3,2
			c-0.7-0.1-0.6,0-1-0.3c-0.2,0-0.4,0-0.7,0c0.1-3.1,1.4-3.6,2-5.9c0.3,0,0.7,0,1,0C246.2,73.2,245.5,73.2,245.2,74.2z M265.6,77.1
			c-0.8,0.7-1.8,1.7-2.3,2.6c-4.1-0.1-13.6-1.6-14.8,0.7c-0.2,0-0.4,0-0.7,0c0-2.9,0.8-4.1,1.6-5.9c1.1,0.1,2.7,0.4,3.6,0.7
			c1.9,0.5,4.9-0.5,6.3-0.3c2.1,0.3,4.4,1.2,6.3,1.6C265.6,76.7,265.6,76.9,265.6,77.1z M282.7,44.9c-0.6,1.5-4.4,7.2-5.6,7.9
			c-1.1,0-1,0.2-1.8,0.9c-0.5,0.5-1.1,0.9-1.7,1.2c-0.9,0.5-1.5,1.5-2.3,2.2c-0.7,0.6-1.2,1.1-1.9,1.8c-0.8,0.9-1.9,1.1-3,1.4
			c-1.1,0.3-1.4,0.5-1.9,1.5c-0.6,1-1.1,1-2.2,1c-1.2,0.1-2.3,0.2-3.4,0.7c-1.2,0.6-1.8,1-3,0.3c-0.6-0.4-1.4-0.9-2-1.2
			c-0.7-0.3-1.5,0.6-2.4,0.4c-1.3-0.3-2.7-0.8-4-1.3c-2.7-1-5.4-2.1-7.7-3.8c-1.1-0.8-1.3-1.8-2-3c-0.5-0.8-1.8-1.3-2.3-2
			c-0.3-0.4-0.4-1.5-0.7-2c-1-1.4-2.7-2.5-3.3-4.3c-0.6-1.5-0.1-2.6-0.7-4.3c-0.5-1.7-1.4-2.5-1.3-5.3c0-0.8,1.9-2.4,2.4-2.9
			c0.4-0.5,1.4-1,1.3-1.8c0-0.5-0.6-0.9-0.7-1.4c-0.2-1.3,1.2-1.7,2-2.3c1.7-1.3,3-2.7,4.9-3.6c0.7-0.3,1.4-0.2,2.1-0.5
			c0.5-0.2,0.4-0.5,0.8-0.7c0.5-0.3,1.3-0.1,1.8-0.2c1-0.1,1.9-0.4,2.9-0.6c1.9-0.6,3.7-1.3,5.5-2.1c1.4-0.6,2.8-1.2,4.3-1.7
			c1.2-0.4,2.5-0.4,3.7-0.9c2-0.7,4.3-0.4,6.4-0.4c5.8,1.7,11.6,5.3,13.8,10.5c0.2,1.1,0.4,2.2,0.7,3.3c0.2,0.5,0.8,1.7,1,2.3
			c0,0.9,0,1.8,0,2.6C283.2,38.8,283.4,42.9,282.7,44.9z M290.9,55.4c-0.7,0.7-4.5,1.6-5.6,0.7c-0.4,0-0.9,0-1.3,0
			c0.4-1.4,1.6-2.4,2.3-3.6c0.8,0,1.5,0,2.3,0C289.2,53.1,292.1,54.3,290.9,55.4z"/>
		<path class="st0" d="M247.7,35.4c0.1,0.1,0.1,0.1,0.1,0.3c0,0.2,0.6-0.1,0.7-0.2c0.2-0.2,0.1-0.7,0.2-0.9c0.2-0.8,0.3-1.6,0.4-2.5
			c0.3-0.8,1-1.3,1.3-2.3c1-0.2,1.9-0.9,2.6-0.3c1.7,0.1,2,0.6,2.3,2c0.9-0.1,1.1-0.1,1.6-0.3c-0.3-2.1-1.4-2.9-2.3-4.3
			c-2.3-0.5-4,0.5-5.7,2c-1.8,1.5-2.3,3.5-1.9,5.6c0,0.2,0,0.6,0.1,0.7C247.3,35.3,247.6,35.3,247.7,35.4z"/>
		<path class="st0" d="M267.8,32.5c-0.1,0.1-0.2,0.2-0.3,0.3c-1.3,1.2,2,1.6,2.7,1.8c3.7,1.1,3.1,5.8,4.6,8.6c0,0.1,1.2-0.2,1.3-0.3
			c0.2-0.2,0.3-0.6,0.4-0.8c0.2-0.6,0.4-1.3,0.4-1.9c0-1-0.3-1.9-0.8-2.8c-0.8-1.5-1.7-3.5-3.1-4.4
			C271.9,32.2,269.2,31.7,267.8,32.5z"/>
		<path class="st0" d="M255.4,35c-0.4,0.3-2.4,0.7-3,1c0.3,1.2,2,2.6,1,3.9c-1.3,4.2-8.8,2.4-11.5,4.9c-0.8,0.2,1.5,0.9,1.6,1.3
			c-0.1,0.3-0.2,0.7-0.3,1c0.1,0.2,0.5,0.7,0.7,1c0.6,0.1,1.2,0.5,1.6,0.7c1,0,2,0,3,0c0.3,0.5,0.7,1.1,1,1.6
			c1.1,0.6,5.1,0.3,5.9-0.3c1.6-0.2,3.2-1.9,3.6-3.3c1.6-1.9,0.9-9.4-0.7-10.9C257.7,35.5,256.2,35.1,255.4,35z"/>
		<path class="st0" d="M219.9,67c-0.6,0.2-1.2,0.4-1.6,0.8c-0.4,0.5-0.4,1.3-1.1,1.6c0.1,0.2,0.2,0.5,0.3,0.7
			c0.2,0.4,2.1-1.7,2.2-1.8c1.1-0.6,2.9-0.8,3.9,0.1c0.4,0.3,0.9,1.3,1.3,1.5c1,0.5,1.5-0.7,1.3-1.4c-0.2-0.7-0.7-1.1-1.5-1.3
			c-1.5-0.3-3.1-0.7-4.6-0.4C220.1,67,220,67,219.9,67z"/>
		<path class="st0" d="M205.5,77.2c-0.1,0.4-0.2,0.9-0.1,1.3c0.1,0.7,0.2,0.5,0.7,1c3.3-0.2,1.5-2.8,2.6-4.3
			c0.5-0.7,1.3-1.2,2.1-1.6c1.1-0.4,1.8,0,1.8-1.4c0-0.5-3.9,1-4.2,1.3c-0.5,0.3-1.2,0.7-1.6,1.1c-0.6,0.6-0.7,1.3-1,2
			C205.6,76.8,205.6,77,205.5,77.2z"/>
		<path class="st0" d="M217.5,79.1c-0.2,0.9-0.5,1,0,1.6c0.4,0.9,0.8,0.7,1.3,1.3c2.5-0.1,3.7-1.1,5.3-2c0-0.2,0-0.4,0-0.7
			c-1.4-0.6-3.1-1-5.3-1C218.4,78.9,218.3,78.9,217.5,79.1z"/>
	</g>
	<g>
		<path d="M120.4,108.1c-3.4-0.2-7.9,0.4-11.3-0.5c-2.8-1.3-1.4-4.6-1.4-6.7c0.3-4.3,0.5-7.6,1.1-11.8c-0.8-1.2-1.5-1.9-2.7-2.7
			c-3.1-0.4-4.4,2.5-5.6,4.6c-1.3,4.3-2.1,7.8-2.1,12.6c0.1,1.1,1,2.1,0.3,3.2c0.4,2.6,1,5.8,3.8,6.7c2.5,1.7,5.9,1.4,8.6,0.3
			c3.7-0.3,7-1.6,9.9-3.8C120.8,109.4,121.3,108.5,120.4,108.1z"/>
		<path d="M68.7,116.5l0.4-0.4l2.1-0.4c1.2-0.5,2.4-1,3.5-1.6c2-1.6,4.4-2.9,5.5-5.4c1-2.9,2.8-5.4,3-8.6c0.6-3.9-2.4-6.3-4.8-8.9
			c-1-0.5-2-1.5-3-0.9c-1,2.1,2.1,2.6,2.7,4.2c1.2,0.7,1.4,2.1,2.1,3.1c1,2.8-0.4,5.7-2.6,7.6c-0.5,0.7-0.6,1.7-1.4,2.1
			c-1.7,3-5.4,2-8.4,2.6c-1.6-0.7-3.5-1.8-4.2-3.4c-0.1-0.5-1.1-0.7-0.8-1.4c-1.6-1.9-1.4-4.7-0.7-6.9c0.7-1.4,1.3-2.8,2-4.2
			c0.2-0.6,0.8-1,0.9-1.6c1-1,1.2-2.3,2.5-3c0.2-1,0.7-2.3,0.1-3.3c-0.8-2.1-3.3-2-5.1-1.6c-0.6-0.1-0.9,0.8-1.4,0.4
			c-1,0.7-2.3,0.9-3.3,1.7c-1.4,0.4-2,1.9-3.3,2.5c-1,0.9-1.6,2.3-2.6,3.1c-0.2,1.6-1.3,2.7-1.4,4.3c-1,1.7-0.5,4-1.2,5.9
			c0,2.3,0.5,4.4,1.2,6.4c0.4,0.7,0.6,1.5,1.4,2.1c1.6,3.4,5.6,3.8,8.8,5c1.6,0.3,3.3,0.5,5,0.8L68.7,116.5z"/>
		<g>
			<path d="M135.9,94.6c0-0.7,0-1.5-0.3-2.2c-0.3-0.7-0.9-1.2-1.2-1.9c-0.1-0.3,0-0.9-0.4-1.1c-0.4-0.2-0.8,0.3-1,0.6
				c-0.8,1.1-0.9,2.6-1,3.9c-0.2,2.2-0.2,4.5-0.7,6.6c-0.2,1.1-0.4,2.1-0.7,3.2c-0.3,1-0.9,1.9-1.2,3c-0.1,0.6-1.1,1.7-0.7,2.3
				c1.1-0.8,1.7-2.3,2.5-3.4c1.5-2,2.8-4,3.5-6.3C135.2,97.8,135.8,96.3,135.9,94.6z"/>
			<path d="M130.1,94.2c-0.2-0.8-0.7-1.3-1.5-0.9c-0.9,0.5-0.5,2.7-1.4,3.4c-1.9,1.6-4.1,2.7-6.4,3.2c-1.3,0.3-2.7,0.3-4,0.3
				c-0.5,0-3.6-0.3-3.2,0.6c0.8,1.9,4.2,1.7,5.7,1.3c1.6-0.4,3.2-0.9,4.7-1.7c0.7-0.4,1.5-0.8,2.1-1.4c0.3-0.3,0.9-1.3,1.4-1.2
				c2,0.2,0.1,4.5-0.2,5.4c-0.3,0.9-1,1.8-1,2.7C128.8,103,131.3,98.2,130.1,94.2z"/>
		</g>
		<path d="M93.3,94.3c0-0.7-0.2-1.5-0.5-2.1c-0.3-0.7-1-1.1-1.3-1.8c-0.1-0.3-0.1-0.9-0.5-1c-0.4-0.2-0.7,0.4-0.9,0.6
			c-0.8,1.2-0.7,2.6-0.7,3.9c0,2.2,0.1,4.5-0.2,6.7c-0.2,1.1-0.2,2.2-0.5,3.2c-0.2,1-0.7,2-0.9,3.1c-0.1,0.6-0.9,1.8-0.5,2.3
			c1-0.8,1.5-2.4,2.2-3.5c1.3-2.1,2.4-4.2,3-6.6C92.9,97.6,93.4,96,93.3,94.3z"/>
		<path d="M140.7,101.3C140.7,101.2,140.7,101.2,140.7,101.3C140.7,101.2,140.8,101.2,140.7,101.3c0.1-0.1,0.1-0.2,0.1-0.2
			c0,0,0,0,0.1,0c0-0.1,0-0.1,0.1-0.2c0,0,0,0,0.1,0c0-0.1,0-0.1,0.1-0.2c0.1,0,0,0,0.1-0.1c0.1,0,0,0,0.1,0c0,0,0,0,0-0.1
			c0,0,0.2,0,0.2,0c0,0,0-0.1,0-0.1c0,0,0.1,0,0.1,0c0,0,0-0.1,0-0.1c0.1,0,0.1-0.1,0.2-0.1c0,0,0,0,0,0c0,0,0-0.1,0-0.1
			c0.1,0,0.1,0,0.2,0c0,0,0,0,0,0c0,0,0,0,0-0.1c0,0,0,0,0.1,0c0,0,0,0,0-0.1c0,0,0.2-0.1,0.2-0.1c0,0,0,0,0-0.1c0,0,0.1,0,0.1,0
			c0,0,0,0,0-0.1c0,0,0.1,0,0.1,0c0,0,0,0,0-0.1c0,0,0,0,0,0c0,0,0,0,0,0c0,0,0.1,0,0.2,0c0,0,0.1-0.1,0.1-0.1c0.1,0,0,0,0.1,0
			c0,0,0,0,0.1,0c0,0,0,0,0-0.1c0.1,0,0.2,0,0.2-0.1c0,0,0,0,0-0.1c0,0,0,0,0,0l0,0c0,0,0.1-0.1,0.1-0.1c0,0,0.1,0,0.1,0
			c0,0,0,0,0,0c0.1-0.1,0.1,0.1,0.2,0c0,0,0,0,0-0.1c0.1,0,0.3,0,0.4,0c0,0,0.1,0,0.1,0c0,0,0,0,0,0c0,0,0.1-0.1,0.2-0.1
			c0,0,0,0,0.1,0c0.1,0,0.2,0,0.3,0c0,0,0,0,0,0c0,0,0.1,0,0.2,0c0,0,0,0.1,0,0.1c0,0,0,0,0-0.1c0.2,0,0.2,0,0.4,0.1c0,0,0,0,0.1,0
			c0,0,0,0,0,0c0,0,0.1,0,0.1,0c0,0,0.1,0,0.1,0.1c0.1,0,0.1,0,0.2,0c0,0,0,0,0,0c0,0,0.1,0,0.1,0c0,0,0,0,0,0c0,0,0,0,0,0
			c0,0,0,0,0,0c0,0,0.1,0,0.1,0c0,0,0,0,0,0c0.1,0,0.2,0.1,0.3,0.1c0.1,0,0.2,0.1,0.2,0.1c0,0,0,0,0,0.1c0.1,0,0.1,0.1,0.2,0.2
			c0,0,0,0,0,0c0.1,0,0.1,0.1,0.1,0.2c0,0,0,0,0,0c0.2,0,0.1,0.1,0.2,0.1c0,0,0.1,0,0.1,0c0,0,0,0.1,0,0.1c0,0,0.1,0,0.1,0
			c0,0,0,0.1,0.1,0.1c0,0,0,0,0.1,0c0,0,0,0.1,0,0.1c0,0,0,0,0.1,0c0,0,0,0.1,0,0.1c0,0,0,0,0,0c0,0,0,0,0.1,0
			c0,0.1,0.1,0.1,0.1,0.1c0,0,0,0.1,0,0.1c0,0,0,0,0.1,0c0,0,0,0.1,0,0.1c0.1,0.1,0.1,0,0.1,0.2c0,0,0,0,0,0c0.1,0,0.2,0,0.2,0.1
			c0,0,0,0,0,0c0,0,0,0,0,0c0,0,0.1,0,0.1,0c0,0,0,0,0,0c0,0,0,0,0,0c0.1,0,0.1,0,0.1,0.1c0,0,0,0,0,0c0,0,0,0,0,0c0,0,0,0,0.1,0
			c0,0,0,0.1,0,0.1c0.1,0.1,0.2,0.1,0.3,0.2c0.1,0,0.2,0.1,0.2,0.1c0,0,0,0,0,0.1c0,0,0.1,0.1,0.1,0.1c0,0,0,0,0.1,0c0,0,0,0,0,0
			c0,0,0,0,0,0c0,0,0,0,0,0c0,0,0.1,0,0.1,0c0,0,0.1,0.1,0.1,0.1c0.1,0,0.4,0,0.5,0c0,0,0-0.1,0.1-0.1c0.1-0.1,0.3-0.1,0.4-0.1
			c0,0,0.1,0,0.1,0c0.1-0.1,0.1-0.1,0.3-0.1c0-0.1,0-0.1,0.1-0.1c0,0,0,0,0,0.1c0.1-0.1,0.1-0.1,0.2-0.1c0-0.1,0,0,0-0.1
			c0,0,0,0,0,0c0.1,0,0.1,0,0.2-0.1c0.1-0.1,0.1-0.2,0.3-0.2c0,0,0-0.1,0-0.1c0.2,0,0.2-0.1,0.3-0.2c0,0,0,0,0,0
			c0-0.1,0.1,0,0.1-0.1c0,0,0-0.1,0-0.1c0,0,0,0,0.1,0c0,0,0,0,0,0c0,0,0,0,0,0c0,0,0,0,0-0.1c0,0,0.1,0,0.1,0c0-0.1,0,0,0-0.1
			c0,0,0,0,0,0c0,0,0,0,0,0c0,0,0-0.1,0.1-0.2c0,0,0,0,0.1,0c0,0,0,0,0,0c0,0,0.1-0.1,0.1-0.1c0.1,0,0.2,0,0.2-0.1
			c-0.1,0,0-0.1,0-0.1c0,0,0,0,0,0c0,0,0,0,0,0c0,0,0,0,0.1,0c0-0.2,0.1-0.2,0.2-0.3c0,0,0,0,0,0c0,0,0.1,0,0.1,0c0,0,0-0.1,0-0.1
			c0,0,0.1,0,0.1-0.1c0,0,0,0-0.1,0c0,0,0,0,0,0c0,0,0.1-0.1,0.1-0.1c0,0,0,0,0.1,0c0,0,0-0.1,0-0.1c0,0,0.1,0,0.1,0
			c0-0.1,0-0.1,0-0.2c0.1,0,0.1,0,0.1,0c0,0,0,0,0-0.1c0.2,0,0.1-0.1,0.2-0.1c0,0,0,0,0.1,0c0,0,0,0,0,0c0,0,0,0,0,0c0,0,0,0,0,0
			c0,0,0,0,0,0c0,0,0.1,0,0.1,0c0-0.1,0,0,0-0.1c0,0,0,0,0,0c0,0-0.1,0-0.1,0c0,0,0-0.1,0-0.1c0.1,0,0.1-0.1,0.1-0.1c0,0,0,0,0.1,0
			c0,0,0-0.1,0-0.1c0,0,0.2-0.1,0.2-0.1c0,0,0,0,0,0c0.1,0,0.1,0,0.2,0c0,0,0,0,0,0c0,0,0,0.1,0,0.1c0,0,0,0,0.1,0c0,0,0,0.1,0,0.1
			c0,0,0,0.1,0,0.1c0,0,0,0,0.1,0c0,0.1,0,0.2,0,0.2c0,0.1,0.1,0.1,0,0.2c-0.1,0.1-0.1,0-0.1,0.1c0,0,0,0,0.1,0c0,0,0,0,0.1,0
			c0,0,0,0,0,0.1c0,0,0,0,0,0.1c0,0,0,0-0.1,0c0.1,0.1,0,0,0,0.1c0,0,0,0,0,0c0,0,0,0.1,0,0.1c0,0.1,0,0,0.1,0.1
			c0,0-0.1,0.1-0.1,0.1c0,0,0,0,0,0.1c0,0,0,0.1-0.1,0.1c0,0,0,0,0,0c0,0,0,0,0,0.1c0,0,0,0-0.1,0c0,0.1,0,0.2,0,0.2
			c0,0-0.1,0-0.1,0.1c0,0,0,0,0,0c0,0-0.1,0-0.1,0.1c0,0,0,0.1,0,0.1c0,0,0,0-0.1,0c0,0-0.1,0.1-0.1,0.1c0,0,0,0,0,0
			c0,0,0,0.1,0,0.1c0,0-0.1,0-0.1,0c0,0,0,0.1,0,0.1c0,0-0.1,0-0.1,0c0,0-0.1,0.1-0.1,0.1c0,0.1-0.2,0.1-0.1,0.2
			c-0.1,0.1-0.2,0.2-0.2,0.3c0,0,0,0-0.1,0c0,0.1-0.1,0.1-0.1,0.1c0,0,0,0,0,0c0,0-0.1,0-0.1,0c0,0,0,0,0,0.1c0,0-0.1,0-0.1,0.1
			c0,0,0,0.1,0,0.1c0,0,0,0-0.1,0c0,0-0.1,0.1-0.1,0.1c0,0-0.1,0-0.1,0c0,0-0.1,0.1-0.2,0.1c-0.1,0-0.1,0-0.1,0c0,0,0,0,0,0
			c0,0,0,0,0,0c-0.1,0.1-0.1,0-0.2,0.1c0,0,0,0,0,0.1l-0.1,0.1c-0.1,0-0.1,0-0.2,0c-0.1,0-0.1,0.1-0.1,0.2c0,0-0.2,0-0.2,0
			c0,0,0,0,0,0c-0.1,0,0,0.1,0,0.1c0,0-0.1,0-0.1,0c0,0,0,0,0,0.1c0,0-0.1,0-0.1,0l0,0.1c0,0,0,0,0,0c0,0,0,0,0,0
			c-0.1,0-0.1,0-0.2,0c0,0-0.1,0.1-0.1,0.1c0,0-0.1,0-0.1,0c-0.2,0-0.3,0.1-0.5,0.1c0,0,0,0,0,0c0,0,0,0,0,0c-0.1,0-0.2,0.1-0.4,0
			c0,0,0,0,0,0c0,0-0.1,0-0.1,0c0,0-0.1-0.1-0.1-0.1c-0.1,0-0.1,0-0.2,0c-0.1,0-0.2-0.1-0.3-0.1c0-0.1,0-0.1-0.1-0.1
			c-0.1,0-0.1-0.1-0.2-0.1c0,0-0.1,0-0.1,0c0,0,0,0,0,0c0,0,0,0,0,0c0,0,0,0,0,0c0,0,0,0,0,0c-0.1,0-0.4-0.2-0.5-0.3
			c0,0-0.1-0.1-0.1-0.1c0,0-0.1,0-0.1,0c0,0-0.1-0.1-0.1-0.2c-0.1,0-0.1-0.1-0.1-0.1c0,0-0.1,0-0.2,0c0,0,0,0,0-0.1c0,0,0-0.1,0-0.2
			c0,0,0,0,0,0c0,0.1,0,0-0.1,0.1c0,0,0,0,0-0.1c0,0,0,0-0.1,0c0,0-0.1-0.1-0.1-0.1c0,0,0-0.1,0-0.1c0,0,0,0,0,0c0,0,0-0.1,0-0.1
			c0,0,0,0-0.1,0c0-0.1,0,0-0.1-0.1c0,0,0,0,0,0c0,0,0,0-0.1,0c0,0,0-0.1,0-0.1c0,0,0,0-0.1,0c0,0,0-0.1,0-0.1c0,0,0,0,0,0
			c0,0,0-0.1,0-0.1c0,0-0.1,0-0.1,0c0,0,0-0.1,0-0.1c0,0-0.1,0-0.1,0c0,0,0,0,0-0.1c0,0-0.1,0-0.1-0.1c0,0,0,0-0.1,0c0,0,0,0,0-0.1
			c-0.1,0-0.2-0.2-0.2-0.2c0,0,0-0.1,0-0.1c0,0-0.1,0-0.1,0c0,0,0-0.1,0-0.1c0,0,0,0,0,0c0,0.1,0,0,0,0c0,0,0-0.1,0-0.1
			c0-0.1,0,0,0-0.1c0,0-0.1,0-0.1-0.1c0,0,0,0,0,0c0,0,0,0-0.1,0c0,0,0-0.1,0-0.1c0,0-0.1,0-0.1,0c0,0,0,0,0-0.1c0,0-0.1,0-0.2,0
			c0,0,0-0.1,0-0.1c0,0,0,0-0.1,0l0,0c0,0-0.1,0-0.1,0c0,0-0.1-0.1-0.1-0.1c0,0,0,0-0.1,0c-0.1-0.1-0.3-0.2-0.5-0.2c0,0,0,0,0-0.1
			c0,0-0.1,0-0.1,0c0,0.1,0,0,0,0.1c0,0-0.1,0-0.2,0c0,0,0,0,0,0c0,0,0,0,0,0c0,0,0,0,0,0c0,0.1,0,0.1-0.1,0.1c-0.1,0.1-0.2,0-0.3,0
			l0,0c0,0-0.1,0-0.1,0c-0.1,0-0.1,0-0.2,0c0,0,0,0,0,0c0,0,0,0,0,0c0,0,0,0,0,0c0,0,0,0,0,0c-0.1,0-0.1,0.1-0.2,0c0,0,0,0,0,0
			c-0.1,0-0.1,0-0.2,0c0,0,0,0.1-0.1,0.1c0,0-0.1,0-0.1,0c0,0,0,0.1-0.1,0.1c0,0-0.1,0-0.1,0l0,0.1c0,0-0.1,0-0.1,0
			c-0.2,0.1-0.3,0.3-0.6,0.3c0,0,0,0,0,0.1c-0.1,0-0.2,0-0.3,0c0,0-0.2,0.2-0.2,0.2c0,0,0,0-0.1,0c0,0,0,0.1,0,0.1c0,0-0.1,0-0.1,0
			c0,0,0,0.1,0,0.1c0,0,0,0-0.1,0c0,0,0,0,0,0c0,0-0.1,0-0.1,0c0,0,0,0.1-0.1,0.1c0,0,0,0-0.1,0c0,0,0,0.1,0,0.1
			c0,0-0.1,0.1-0.1,0.1c0,0,0,0.1,0,0.1c0,0-0.1,0.1-0.1,0.1c0,0,0,0,0,0.1c0,0-0.1,0-0.1,0c0,0,0,0.1,0,0.1c0,0,0,0-0.1,0
			c0,0,0,0,0,0.1c0,0-0.1,0.1-0.1,0.1c0,0,0,0-0.1,0c0,0,0,0.1,0,0.1c0,0,0,0,0,0c0,0,0,0.1-0.1,0.2c0,0,0,0,0,0c0,0,0,0,0,0.1
			c0,0,0,0-0.1,0c0,0,0,0.1,0,0.1c0,0,0,0,0,0c0,0,0,0.1,0,0.1c-0.1,0.1-0.2,0.1-0.2,0.2c0,0,0,0,0,0c-0.1,0.1-0.1,0.1-0.2,0.2
			c-0.1,0-0.2,0-0.2,0c0,0,0,0,0,0c0.1-0.1-0.1-0.1,0-0.2c0,0,0,0,0,0c0,0,0-0.1,0-0.1c0,0,0,0,0,0c0-0.1,0-0.1,0-0.2c0,0,0,0,0-0.1
			c0,0,0-0.1,0.1-0.1c0,0,0,0,0,0c0,0,0-0.1,0-0.1c0,0,0,0,0,0c0,0,0-0.1,0.1-0.1c0,0,0,0,0.1,0c0-0.1,0.1-0.2,0.1-0.3
			c0,0,0.1,0,0.1,0c0,0,0,0,0,0c0,0,0,0,0,0c0,0,0,0,0-0.1C140.5,101.6,140.5,101.3,140.7,101.3z"/>
		<path d="M147.6,96.8C147.6,96.8,147.6,96.8,147.6,96.8C147.6,96.8,147.6,96.8,147.6,96.8C147.6,96.8,147.6,96.8,147.6,96.8
			C147.6,96.8,147.6,96.8,147.6,96.8z"/>
		<path d="M159.3,96.3C159.3,96.3,159.3,96.3,159.3,96.3C159.3,96.3,159.3,96.3,159.3,96.3z"/>
		<path d="M159.4,96C159.5,96,159.5,96,159.4,96C159.5,96,159.5,96,159.4,96C159.5,96,159.5,96,159.4,96C159.5,96,159.4,96,159.4,96
			z"/>
		<path d="M160.6,95.1C160.6,95.1,160.6,95.1,160.6,95.1C160.6,95.1,160.6,95.1,160.6,95.1C160.6,95,160.6,95,160.6,95.1
			C160.6,95.1,160.6,95.1,160.6,95.1z"/>
		<path d="M160.7,95C160.7,95,160.7,95,160.7,95C160.7,95,160.7,95,160.7,95z"/>
		<g>
			<path class="st1" d="M163.7,98c0.4-0.4,1-0.6,1.7-0.6c0.8,0,1.4,0.3,1.9,0.8c0.6,0.6,0.8,1.3,0.8,2.3c0,1-0.6,2.4-1.9,4.3
				c-0.9,1.5-2.1,2.9-3.4,4.4c-1.3-1.3-2.4-2.7-3.4-4.3c-1.2-1.9-1.8-3.5-1.8-4.7c0-0.8,0.3-1.5,0.8-2c0.5-0.5,1.2-0.8,1.9-0.8
				c0.7,0,1.3,0.2,1.7,0.6c0.3,0.3,0.5,0.7,0.8,1.3l0,0.1C163.1,98.8,163.4,98.3,163.7,98z"/>
		</g>
		<g>
			<path d="M113.9,70.5v1.4h-0.8v-1.4h-3v-0.6h6.6v0.6H113.9z M112.5,68.8c-0.5,0.3-1,0.5-1.5,0.6l-0.5-0.5c1.1-0.2,1.8-0.5,2.1-1
				c0.3-0.5,0.5-0.8,0.5-1v-0.2h0.8v0.2c0,0.2,0.2,0.6,0.5,1c0.3,0.4,1,0.8,2,1l-0.5,0.5c-0.5-0.1-1-0.3-1.5-0.6
				c-0.5-0.3-0.8-0.6-1-1C113.3,68.2,113,68.5,112.5,68.8z M111,73.1v-1.9h0.8v1.2h4.4v0.6H111z"/>
			<path d="M119.9,71.7c-0.2,0-0.6,0-1,0l-1.3,0v-4.3h2.4v0.6h-1.6v3l0.9,0c0.2,0,0.5,0,0.7,0c0.2,0,0.4,0,0.5-0.1v0.6
				C120.4,71.7,120.2,71.7,119.9,71.7z M122.4,73.2v-3.4h-0.9v3.1h-0.7v-6.2h0.7v2.3h0.9v-2.5h0.7v6.6H122.4z"/>
			<path d="M124,70.1v-0.6h2.5v-1.2h0.8v1.2h3.3v0.6H124z M129.7,68.3c-0.1,0.5-0.2,0.7-0.2,0.8h-0.8c0,0,0.1-0.2,0.2-0.5
				c0.1-0.3,0.2-0.7,0.2-1h-4.3v-0.6h5.1C129.9,67.3,129.8,67.8,129.7,68.3z M124.8,73.2v-2.7h0.8v0.7h3.4v-0.7h0.8v2.7H124.8z
				 M129,71.8h-3.4v0.8h3.4V71.8z"/>
			<path d="M135.1,70.4c-0.3,0-0.6-0.2-1-0.4c-0.4-0.2-0.6-0.5-0.8-0.7c-0.1,0.2-0.4,0.5-0.7,0.8c-0.4,0.3-0.7,0.4-1,0.5L131,70
				c0.8-0.3,1.3-0.6,1.5-0.9c0.2-0.3,0.3-0.6,0.3-0.7h-1.4v-0.6h3.6v0.6h-1.4c0,0.1,0.1,0.4,0.4,0.7c0.3,0.3,0.7,0.6,1.3,0.7
				L135.1,70.4z M136.4,71.1c0.4,0.2,0.6,0.5,0.6,0.9c0,0.4-0.2,0.7-0.6,0.9c-0.4,0.2-1,0.4-1.9,0.4c-0.8,0-1.4-0.1-1.9-0.4
				c-0.4-0.2-0.6-0.6-0.6-0.9c0-0.4,0.2-0.7,0.6-0.9c0.4-0.2,1-0.4,1.9-0.4C135.3,70.8,135.9,70.9,136.4,71.1z M132.2,67.2v-0.6h2.1
				v0.6H132.2z M133.3,71.6c-0.3,0.1-0.5,0.3-0.5,0.5c0,0.2,0.2,0.4,0.5,0.5c0.3,0.1,0.7,0.2,1.2,0.2c0.5,0,0.9-0.1,1.2-0.2
				c0.3-0.1,0.5-0.3,0.5-0.5c0-0.2-0.2-0.4-0.5-0.5c-0.3-0.1-0.7-0.2-1.2-0.2C134,71.4,133.6,71.4,133.3,71.6z M136.8,69v1.7h-0.8
				v-4h0.8v1.7h1V69H136.8z"/>
			<path d="M143,69v-2.4h0.8v6.6H143v-3.5h-1.4v2.1h-3.3v-4.6h0.8v1.6h1.8v-1.6h0.8V69H143z M140.9,69.4h-1.8v1.8h1.8V69.4z"/>
			<path d="M148.8,70.2c-0.4-0.1-0.7-0.4-1-0.7c-0.3-0.3-0.6-0.6-0.7-0.8c-0.1,0.3-0.4,0.6-0.7,1c-0.3,0.3-0.7,0.6-1,0.7l-0.5-0.5
				c0.8-0.4,1.3-0.8,1.6-1.3c0.2-0.5,0.3-0.9,0.3-1.2v-0.6h0.8v0.6c0,0.3,0.1,0.7,0.3,1.1c0.2,0.5,0.7,0.8,1.5,1.1L148.8,70.2z
				 M150.7,73.3c-0.3-0.1-0.8-0.3-1.3-0.6c-0.5-0.3-0.8-0.6-0.9-0.9c-0.2,0.3-0.5,0.6-0.9,0.9c-0.4,0.3-0.9,0.5-1.3,0.6l-0.5-0.5
				c0.9-0.3,1.5-0.6,1.8-1c0.3-0.4,0.4-0.7,0.4-0.9v-0.2h0.9v0.2c0,0.2,0.1,0.5,0.4,0.9c0.3,0.4,0.9,0.7,1.8,1L150.7,73.3z
				 M150.1,71.1v-2.5h-1.4v-0.7h1.4v-1.3h0.8v4.5H150.1z"/>
			<path d="M155.7,70.4c-0.3-0.1-0.6-0.3-0.9-0.5c-0.3-0.2-0.5-0.5-0.7-0.8c-0.1,0.3-0.3,0.6-0.7,0.9c-0.3,0.3-0.7,0.5-1.1,0.7
				l-0.6-0.6c0.9-0.3,1.4-0.7,1.6-1.2c0.2-0.5,0.3-0.8,0.3-1v-0.2h-1.4V67h3.6v0.6h-1.4v0.2c0,0.2,0.1,0.5,0.3,0.9
				c0.2,0.4,0.7,0.8,1.4,1L155.7,70.4z M153.1,73.1V71h0.8v1.5h4.2v0.6H153.1z M157.1,71.4v-2.6h-1.3v-0.7h1.3v-1.5h0.8v4.8H157.1z"
				/>
			<path d="M158.6,69.8v-0.6h2.5V68h0.8v1.1h3.3v0.6H158.6z M164.4,67.8c-0.1,0.4-0.2,0.8-0.3,1.1h-0.8c0,0,0.1-0.2,0.1-0.5
				c0.1-0.3,0.1-0.6,0.2-0.9h-4.3v-0.6h5.1C164.5,67.1,164.4,67.4,164.4,67.8z M159.4,73.2v-1.7h4.1v-0.5h-4.1v-0.6h4.9V72h-4.1v0.6
				h4.2v0.6H159.4z"/>
			<path d="M169.6,70.4c-0.3-0.1-0.6-0.3-0.9-0.5c-0.3-0.2-0.5-0.5-0.7-0.8c-0.1,0.3-0.3,0.6-0.7,0.9c-0.3,0.3-0.7,0.5-1.1,0.7
				l-0.6-0.6c0.9-0.3,1.4-0.7,1.6-1.2c0.2-0.5,0.3-0.8,0.3-1v-0.2h-1.4V67h3.6v0.6h-1.4v0.2c0,0.2,0.1,0.5,0.3,0.9
				c0.2,0.4,0.7,0.8,1.4,1L169.6,70.4z M166.9,73.1V71h0.8v1.5h4.2v0.6H166.9z M171,71.4v-2.6h-1.3v-0.7h1.3v-1.5h0.8v4.8H171z"/>
			<path d="M176.2,70.6V72h-0.8v-1.4h-3v-0.6h6.6v0.6H176.2z M173.3,69.3v-2.4h4.9v2.4H173.3z M173.3,73.1v-1.8h0.8v1.2h4.3v0.6
				H173.3z M177.4,67.5H174v1.2h3.4V67.5z"/>
			<path d="M183.5,70.2c-0.3-0.1-0.6-0.2-0.9-0.5c-0.3-0.2-0.6-0.5-0.8-0.8c-0.1,0.3-0.4,0.6-0.7,0.9c-0.4,0.3-0.7,0.5-1,0.6
				l-0.5-0.5c0.8-0.3,1.3-0.7,1.5-1.1c0.2-0.4,0.3-0.8,0.3-1.1H180V67h3.6v0.6h-1.4c0,0.3,0.1,0.7,0.3,1c0.2,0.4,0.7,0.7,1.4,0.9
				L183.5,70.2z M180.7,73.2v-2.4h4.8v2.4H180.7z M184.8,71.4h-3.3v1.1h3.3V71.4z M184.8,70.4v-1.6h-1.3v-0.6h1.3v-1.5h0.8v3.8
				H184.8z"/>
		</g>
		<g>
			<polygon class="st2" points="41.5,65.1 41.5,65.1 41.5,65.1 			"/>
			<path d="M54.2,58.4L54.2,58.4L54.2,58.4c-0.2,0-0.3,0-0.4,0c0,0,0,0.1,0,0.1h-0.5v0c0,0-0.1,0-0.1,0v0h-0.1v0h0v0h-0.2v0h-0.4v0
				h-0.3v0c-0.1,0-0.2,0-0.3,0v0h-0.1v0c-0.1,0-0.2,0-0.3,0v0c-0.1,0-0.1,0-0.2,0v0.1h-0.1v-0.1h0c0,0,0,0.1-0.1,0c0,0,0-0.1-0.1,0
				v0h-0.1v0c-0.1,0-0.3,0-0.3,0c0,0,0,0.1,0,0.1c0,0-0.1-0.1-0.2-0.1v0H50v0c-0.1,0-0.1-0.1-0.2,0v0h-0.1v0h-0.4v0c0,0-0.1,0-0.1,0
				c0,0,0,0.1,0,0.1c-0.1,0-0.1-0.1-0.2-0.1c0,0,0,0.1,0,0.1c-0.2,0-0.3,0-0.5,0c-0.1,0,0-0.1,0,0v0h-0.2v0h-0.2v0h0v0h-0.1v0
				c0,0-0.1,0-0.1,0v0c-0.1,0-0.2,0-0.4,0v0h-0.1v0H47v0c0,0-0.1,0-0.1,0c-0.1,0-0.1,0-0.2,0v0h0c0,0,0,0.1-0.1,0v0h0v0.1
				c-0.1,0,0,0-0.1,0h0c0,0,0-0.1,0-0.1c-0.1,0-0.1,0-0.2,0v0c-0.1,0-0.1,0-0.2,0c0,0,0,0.1,0,0.1c0,0-0.1,0-0.1,0v0.1
				c-0.1,0-0.3,0-0.4,0v0.1c-0.1,0-0.2,0-0.3,0v0.1c-0.1,0-0.1-0.1-0.3-0.1v0.1h-0.1c0,0,0,0.1,0,0.1c0,0-0.1-0.1-0.2,0
				c0,0,0,0.1,0,0.1c0,0-0.1-0.1-0.2,0v0h-0.1v0c0,0-0.2-0.1-0.3,0c0,0,0,0.1,0,0.1c0,0-0.1,0-0.1,0v0h-0.1v0h0v0
				c-0.1,0-0.1,0-0.1,0h-0.2v0.2h0v0c0,0,0.1,0,0.1,0c0,0.1,0,0,0,0.1v0h-0.1c0-0.1,0-0.2,0-0.3c0,0-0.1,0-0.1,0c0,0,0-0.1-0.1,0
				c0,0-0.1,0.1-0.1,0.1h-0.1v0h0v0h-0.3v0h-0.1v0h0v0c0,0-0.1,0-0.1,0v0h-0.3c0,0,0,0.1,0,0.1c0,0-0.1,0-0.1,0v0h-0.1
				c0,0,0,0.1,0,0.1c0,0-0.1,0-0.1,0c0,0,0,0.1-0.1,0c0,0,0-0.1-0.1,0c0,0,0,0.1-0.1,0v0c-0.1,0-0.2,0-0.3,0v0
				c-0.2,0.1-0.4,0.1-0.6,0v0.2h0v0H40v-0.1c-0.2,0-0.2,0.1-0.4,0v0.2h0v0h-0.1v0h-0.2v0h0c0,0,0.1-0.1,0-0.2h0v0
				c-0.2,0-0.4,0.1-0.6,0.1c0,0,0,0.1,0,0.1c0,0-0.1,0-0.1,0v0h-0.2c-0.1,0,0,0,0,0c0,0,0,0.1,0,0.1c0,0-0.1,0-0.1,0v0h0
				c0,0,0-0.2-0.1-0.1v0c0,0-0.1,0-0.1,0v0c-0.1,0-0.1,0-0.1,0h0v0h-0.1v0c0,0-0.1,0-0.1,0v0h-0.2v0h-0.4v0c-0.1,0-0.1-0.1-0.2,0v0
				c0,0-0.1,0-0.1,0v0c0,0-0.1,0-0.2,0v0.1c-0.1,0-0.2,0-0.3,0v0h-0.1v0h-0.3c0,0,0,0.1,0,0.1h-0.1v0c-0.1,0-0.1,0-0.1,0h0v0h-0.3
				c0,0,0,0.1,0,0.1c0,0-0.1-0.1-0.2-0.1c0,0-0.1,0.1-0.1,0.1h-0.1c-0.1,0-0.2,0-0.3,0v0.1c-0.1,0-0.1,0.1-0.2,0.1V62h-0.1v0
				c-0.1-0.1,0-0.1-0.2-0.1V62c-0.2,0-0.2,0-0.4,0V62c-0.1,0-0.1,0-0.2,0v0h0v0h-0.1v0h0v0h-0.3c0,0-0.1,0.1-0.1,0.1h-0.1v0h-0.4
				c0,0,0,0.1-0.1,0.1c0,0-0.1,0-0.1,0v0c-0.1,0-0.2,0-0.3,0c0,0,0,0.1,0,0.1c-0.1,0-0.3,0-0.4,0c0,0.1,0,0,0,0.1
				c-0.1,0.1-0.4,0-0.7,0.1v0H30v0h-0.1v0h-0.2c0,0,0,0.1,0,0.1c0,0-0.1,0-0.1,0c-0.1,0,0,0.1,0,0v-0.1h0c0,0,0,0.1,0,0.1h0v0h0
				c-0.1,0.1-0.3,0-0.5,0v0h-0.1c0,0,0,0.1,0,0.1h-0.1v0h-0.3v0c-0.1,0-0.3,0-0.4,0v0h-0.3v0h-0.1v0c0,0-0.1,0-0.1,0v0
				c-0.2,0-0.3,0-0.5,0v0.1c-0.1,0-0.2-0.1-0.3,0v0h-0.2v0H26v0h-0.1v0c0,0-0.1,0-0.1,0v0h-0.1c0,0-0.1,0.1-0.1,0.1
				c-0.1,0-0.1,0-0.2,0v0c-0.1,0-0.2,0-0.3,0V64c-0.1,0-0.1,0-0.2,0c0,0,0,0.1,0,0.1c0,0-0.1,0-0.1,0l0,0.1c-0.1,0-0.3,0-0.4,0v0
				h-0.1v0c0,0-0.1,0-0.1,0v-0.1c0,0-0.1,0-0.1,0v0c0,0-0.1,0-0.1,0c0,0,0,0.1,0,0.1h-0.1v0c-0.1,0-0.2,0-0.3,0c0,0,0,0.1,0,0.1h0v0
				c-0.1,0-0.1,0.1-0.1,0.1H23v-0.1c0,0-0.1,0-0.1,0c0,0,0,0.1,0,0.1h0v0h0v0c-0.1,0-0.2,0-0.3,0v0h-0.2v0h-0.2c0,0,0,0.1,0,0.1
				c-0.1,0-0.2,0-0.2,0v0.1c-0.1,0-0.2,0-0.2,0v0h-0.1c0,0.1,0,0,0,0.1v0c-0.1,0-0.1-0.2-0.2-0.1v0c0,0-0.2,0-0.1,0h0v0
				c-0.2,0-0.1-0.1-0.3-0.1c0,0.1,0,0.1,0,0.2c-0.1,0-0.2,0-0.3,0c0,0.1,0,0,0,0.1v0c0,0-0.1-0.1-0.2,0v0h-0.1v0h-0.1v0h-0.3v0h-0.1
				v0c0,0-0.2-0.1-0.3,0v0h-0.1v0H19v0h-0.2v0h-0.2c0,0,0,0.1,0,0.1c-0.1,0-0.1,0-0.1,0c-0.1,0-0.1,0-0.2,0v0h0c0,0,0,0.1,0,0.1
				c-0.1,0-0.1,0-0.2,0v0h-0.2v0c0,0-0.1,0-0.1,0c-0.1,0.1-0.2,0.1-0.2,0.3c-0.1,0-0.3,0-0.4,0v0c-0.1,0-0.2,0-0.2,0.1v0.1
				c-0.1,0-0.1-0.1-0.2-0.1c0,0,0,0.1,0,0.1c0,0-0.1,0-0.1,0c0,0,0,0.1,0,0.1c-0.1,0.1-0.2-0.1-0.3,0v0h-0.1v0h0v0
				c-0.1,0-0.1,0-0.1,0c0,0-0.1,0-0.1,0v0h-0.1v0c0,0-0.1,0-0.1,0c-0.1-0.1,0,0-0.1,0c0,0,0,0.1,0,0.1h-0.3c0,0,0-0.1-0.1-0.1
				c0,0.1-0.1,0.1-0.1,0.2c-0.1,0-0.1,0-0.2,0v0h-0.2v0h-0.1v0c0,0-0.1,0-0.1,0v-0.1c-0.2,0-0.2,0-0.3,0.1v0c-0.1,0-0.2,0-0.3,0
				c0,0,0,0.1,0,0.1c-0.1,0-0.1,0-0.2,0c0,0,0,0.1,0,0.1c-0.1,0-0.1-0.1-0.1-0.1c-0.1,0-0.2,0.1-0.3,0.1c-0.1,0-0.1-0.1-0.2-0.1v0
				h-0.1v0c-0.1,0.1-0.3,0-0.4,0v0.1c-0.1,0-0.2,0-0.2,0s-0.1-0.1-0.1,0c0,0,0,0.1,0,0.1h-0.4c0,0,0,0.1,0,0.1
				c-0.1,0.1-0.1-0.1-0.2-0.1v0h-0.1v0h-0.1v0c-0.1,0-0.1-0.1-0.2-0.1c0,0,0,0.1,0,0.1c-0.1,0.1-0.3,0-0.4,0c0,0.1,0,0,0,0.1v0
				c0,0-0.2-0.1-0.3,0c0,0,0,0.1,0,0.1c-0.1,0-0.1-0.1-0.2,0c0,0,0,0.1-0.1,0c0,0,0-0.1-0.1,0v0h0c0,0,0-0.1,0-0.1
				c-0.1,0-0.1,0-0.2,0v0.1c0,0-0.1,0.1-0.1,0.1h0v0H9.4v0c-0.1,0-0.1,0-0.2,0v0.1H9.2c0,0,0-0.1,0-0.1c-0.1,0-0.3,0-0.4,0v0.1H8.6
				v-0.1c-0.1,0,0,0-0.1,0c-0.1,0-0.1,0-0.2,0v0.1h0c0,0.1,0,0.1,0,0.2l-0.2-0.1v0.1c-0.1,0-0.1,0-0.2,0v-0.1H7.7v0.1
				c-0.1,0,0,0-0.1,0c-0.2,0-0.2,0.1-0.2,0.2c-0.1,0-0.4,0-0.4,0v0c-0.1,0-0.2,0-0.4,0v0c-0.1,0-0.2-0.1-0.3-0.1c0,0,0,0.1,0,0.1
				H6.1c0,0,0,0.1,0,0.1H5.9v0H5.8v0H5.6v0H5.4v0c-0.1,0-0.3,0-0.4,0c0,0.1-0.1,0.2-0.1,0.4H4.7v-0.1c-0.2,0-0.1,0.1-0.2-0.1h0v0.1
				c0,0.1-0.1,0,0,0c0,0,0.1,0,0,0.1h0v0.1c0,0-0.1,0-0.1,0.1c0,0,0.1,0,0.1,0v0.1h0c0,0.1,0,0.1,0,0.2c0,0-0.1,0-0.1,0
				c0,0.1,0,0.2,0,0.3H4.2c0,0.1,0,0.1,0,0.2h0v0.2h0c0,0.1-0.1,0.1-0.1,0.2h0c0,0.1,0.1,0.3,0.1,0.4l0.1,0.1v0.1h0v0.2
				c0,0,0.1,0,0.1,0.1h0.1c0,0.1,0,0.2,0.1,0.2v0c0.1,0,0.1,0,0.2,0v0.2c0.2,0,0.2,0.1,0.4,0.1v0.1c0.1,0,0.1,0,0.2,0.1v0h0.1
				c0,0,0.1,0.1,0.1,0.1c0,0,0,0.1,0,0.1h0.2c0,0,0,0.1,0,0.1c0,0,0.1,0,0.1,0v0c0.1,0,0,0,0,0c0.1,0,0.2,0,0.3,0v0h0.1v0h0.1v0
				c0,0,0.1,0,0.1,0v0c0.1,0,0.1,0,0.2,0v0.1c0.1,0,0.1,0,0.2,0c0.1,0,0-0.1,0,0v0c0,0,0.1,0,0.1,0c0,0,0,0.1,0,0.1
				c0.1,0,0.1,0,0.2,0c0,0,0.1,0.1,0.1,0.1c0.1,0,0.1,0,0.2,0c0,0.1,0.1,0.1,0.1,0.2c0,0,0.2,0,0.3,0v0.1c0.1,0,0.1,0,0.2-0.1
				c0,0.1,0.1,0.1,0.1,0.2h0.2c0,0.1,0,0.1,0.1,0.2c0.1,0.1,0.1-0.1,0.1-0.1c0.1,0.1,0,0,0.2,0c0,0,0,0.1,0.1,0c0,0,0.1-0.1,0.1-0.1
				c0.1,0.1,0.1,0.1,0.3,0.1V73h0.2v0h0.2v0h0c0,0,0,0.1,0,0.1h0v0c0.1,0,0.1,0,0.2,0c0,0,0,0.1,0,0.1c0.1,0,0.2-0.1,0.4-0.1
				c0,0,0,0.1,0,0.1h0.1v0.1h0.1c0-0.1,0,0,0-0.1v0c0.1,0,0.1,0,0.2,0v0c0.1,0,0.3,0,0.4,0c0,0.1,0,0,0,0.1c0.1,0.1,0.1-0.1,0.1-0.1
				c0.2,0.1,0.2,0,0.4,0V73c0.1,0,0.3,0,0.4,0v0.1c0.2,0,0.2,0.1,0.4,0.1v-0.1c0.1,0,0.3,0.1,0.4,0.1v0.1c0.1,0,0.1-0.1,0.2-0.1v0
				h0.1v0h0.3v0c0.1,0,0.1,0,0.2,0c0.1,0,0.1,0,0.2,0h0.2v0c0,0,0.1,0,0.1,0v0c0,0,0.1,0,0.1,0v0h0.2c0.1,0,0.2,0.1,0.3,0h0v0.1
				c0.1,0,0.2-0.1,0.3-0.1c0,0,0.1,0,0.1,0v0c0.1,0,0.3,0,0.3,0c0,0,0-0.1,0.1-0.1c0,0,0,0.1,0,0.1c0.1,0,0,0,0,0h0.1v0
				c0.1,0,0.3,0,0.4,0v-0.1c0,0,0.1,0,0.1,0v0h0.3v0h0c0,0,0.1,0,0.1,0v0h0c0,0,0.1,0,0.1,0v0h0.2V73h0v0c0.1,0,0.1,0,0.1,0
				c0.1,0,0.2,0,0.3,0c0,0,0-0.1,0-0.1h0.2v0c0.1,0,0.1-0.1,0.2,0c0.1,0,0,0.1,0,0v0h0.1v0c0.1,0,0.1,0,0.2,0l0-0.1H19v0
				c0.1,0,0.1,0,0.1,0c0.1,0,0.1-0.1,0.1-0.1h0.4c0,0,0-0.1,0-0.1c0.1,0,0.3,0,0.4,0v0h0.1v0c0.1,0,0.2,0,0.3,0v0h0.1v0h0v0h0.1
				c0,0,0-0.1,0-0.1h0.2c0,0,0-0.1,0-0.1c0.1-0.1,0.1,0,0.3,0c0,0,0-0.1,0-0.1c0.1,0,0.3,0.2,0.4,0.1c0,0,0-0.1,0-0.1H22v-0.2h0
				l0,0.1c0.2,0,0.4-0.1,0.6-0.1l0-0.1h0.1v0c0,0,0.1,0,0.1,0l0-0.1c0.1,0,0.1,0,0.2,0v0h0.1v-0.1c0,0,0,0,0,0c0.1,0,0.1,0,0.2,0
				c0-0.1,0,0,0-0.1v0c0.1,0.1,0.4,0,0.7,0c0,0,0-0.1,0-0.1c0.2,0,0.3,0.1,0.4,0v0c0,0,0.1,0,0.1,0v0c0,0,0.1,0,0.1,0
				c0-0.1,0,0,0-0.1c0-0.1,0.1-0.1,0.1-0.1c0.2,0,0.2,0,0.4,0v-0.1c0.1,0,0.1,0,0.2,0v-0.1c0.1,0,0.2-0.1,0.3-0.1c0,0,0,0.1,0,0.1
				c0,0,0.1,0,0.1,0c0.1-0.1,0.1-0.2,0.3-0.2v0.1h0.2c0-0.1,0,0,0-0.1v0c0.1,0,0.1,0.1,0.1,0.1h0V71h0v-0.1c0,0,0.1,0,0.1,0
				c0-0.1,0,0,0-0.1c0.1-0.1,0.2,0,0.3-0.2h0c0,0.1,0,0.2,0,0.2h0V71h0.1v-0.1c0.2,0,0.4-0.1,0.4-0.2h0.1v0h0v0H28v0h0
				c0-0.1,0-0.1,0-0.3c0.1,0,0.1,0,0.1-0.1h0.2c0,0,0,0.1,0,0.1h-0.1v0.1c0,0,0.1,0,0.1,0v0h0.1l0-0.1c0.1,0,0.1,0,0.2,0
				c0,0,0-0.1,0-0.1c0.1,0,0.1,0.1,0.2,0.1c0-0.1,0,0,0-0.1v0h0v0.1c0.1,0,0,0,0.1,0h0v-0.1h0v0h0v0h0v0.1h-0.1c0-0.1,0-0.2,0-0.2
				h0.1v0.1h0.1c0-0.1,0,0,0-0.1v0c0,0,0.1,0,0.1,0v0.1c0.1,0,0.2,0,0.2,0v0h0.2c0-0.1,0-0.2,0-0.3c0.1,0,0.1,0,0.2-0.1h0.1
				c0,0.1,0,0.1-0.1,0.1v0.1c0.1,0,0.2,0,0.4,0c0-0.1,0-0.1,0-0.2h0.1v-0.1h0v-0.1c-0.1,0-0.1,0.1-0.2,0.1c0,0.1,0,0,0,0.1v0h0v-0.1
				l-0.1,0v0h0v0h-0.1v0h0v0h0v0c0,0-0.1,0-0.1,0c0,0.1,0,0,0,0.1v0c-0.1,0-0.2,0-0.3,0c0,0,0,0.1,0,0.1c-0.1,0-0.1,0-0.1,0h-0.2v0
				c-0.1,0-0.2,0-0.3,0c0,0.1,0,0,0,0.1v0c-0.1,0-0.2,0-0.3,0v-0.1c0.2,0,0.1,0,0.3,0c0,0,0-0.1,0-0.1c0.4,0,0.4-0.2,0.8-0.2v-0.1
				h0.1c0,0,0-0.1,0-0.1c0,0,0.1,0,0.1,0v0h0v-0.1c0.1,0,0.1,0,0.2,0v-0.1c0.1,0,0.2,0,0.2,0c0,0,0,0.1,0,0.1c0.1,0,0.1,0,0.2,0V69
				c0.1,0,0.2,0,0.3,0c0,0.1,0.1,0,0.1,0.1c-0.1,0,0,0,0,0h0.1c0-0.1-0.1-0.1-0.1-0.2c0.1,0,0.1-0.1,0.2,0c0,0,0,0.1,0.1,0v0h0.2
				c0,0,0-0.1,0-0.1h0.1v0c0.1,0,0.1,0,0.2,0c0-0.1,0,0,0-0.1v0c0,0,0.1,0,0.1,0v-0.2h0.1l0-0.1c0.1,0,0.2,0,0.2,0v0
				c0.1,0,0.1,0,0.1,0c0.1,0,0,0,0,0c0,0,0.1,0,0.1,0c0-0.1,0-0.1,0-0.2h0.1V68c0.1,0,0.2,0,0.4,0v-0.1c0,0.1,0.2,0,0.3,0v0
				c0.1,0,0.2,0.1,0.2,0v-0.1h0v0.1h0c0,0.1-0.1,0.1-0.1,0.1c0,0.1,0,0.1,0,0.2h-0.1c0,0.1,0.1,0.2,0.1,0.2h0c0,0,0,0.1,0,0.1
				c-0.1,0-0.2,0-0.3,0c0,0.1,0,0,0,0.1v0c0.1,0,0.1,0,0.2,0l0,0.3c0,0-0.1,0-0.1,0v0.1h0.1c-0.1,0.2-0.1,0.4-0.2,0.6
				c0,0-0.1,0-0.1,0c0,0.1,0,0.3,0,0.4c0,0-0.1,0-0.1,0v0.2h0c0,0.1,0,0.2,0,0.3h-0.1c0,0.1,0.1,0.1,0,0.2h0V71c0,0-0.1,0-0.1,0
				c0,0.1,0,0.2,0,0.3c-0.1,0.2-0.2,0.3-0.2,0.6h-0.1c0,0.1,0,0.1,0,0.2h0c0,0.1,0.1,0.1,0,0.2h0v0.1h0c0,0.1,0,0.1,0,0.2h0v0.1
				c0,0-0.1,0-0.1,0V73l-0.1,0c0,0.1,0,0.1,0,0.2c0,0-0.1,0-0.1,0c0,0.1,0,0.3,0,0.4c0,0.1,0.1,0,0,0l-0.1,0c0,0.1-0.1,0.3-0.1,0.4
				c-0.1,0,0,0-0.1,0h0c0,0.1,0.1,0.1,0,0.2h0v0.1l-0.1,0v0h0c0,0.2-0.1,0.1,0,0.3h-0.1c0,0.1,0.1,0.1,0,0.3h0v0.1h0v0.3h0
				c0,0.1,0,0.3,0,0.4h-0.1c0,0.1-0.1,0.3-0.1,0.4c0,0-0.1,0-0.1,0v0.1h0c0,0.1,0.1,0,0.1,0.1c0,0-0.1,0.1-0.1,0.1
				c0,0.1,0,0.1,0,0.2h0v0.1c0,0-0.1,0-0.1,0v0.1h0c0,0.1,0,0.1,0,0.2h0c0,0.1,0.1,0.2,0,0.2h-0.1c0,0,0,0.1,0,0.1h-0.1
				c0.1,0.1,0,0.2,0,0.3h-0.1c0,0.2-0.1,0.4-0.1,0.5l-0.1,0.1c0,0.1,0,0.1,0,0.2c0,0,0,0,0.1,0c-0.1-0.2,0.4-0.1,0.4-0.3
				c0.2,0,0.1-0.1,0.3-0.2c0.1,0,0.3,0,0.3-0.1c0.1,0,0.2-0.1,0.2-0.1c0,0,0.1,0,0.1-0.1c0,0,0,0,0,0c0,0,0,0,0,0c0,0,0,0,0,0
				c0,0,0.1,0,0.2,0c0-0.1,0.1-0.1,0.2-0.2c0,0,0.2-0.3,0.2-0.4c0.2,0,0.2,0,0.2-0.2h0.1v-0.1c0,0,0.1,0,0.1,0v-0.1c0.1,0,0,0,0.1,0
				H33c0.1,0,0,0,0,0c0,0,0-0.1,0-0.1c0.2,0,0.2,0,0.4,0v-0.1h0c0-0.1,0.1-0.2,0.2-0.2c0,0,0,0.1,0.1,0c0,0,0-0.1,0-0.1
				c0.1,0,0.1,0,0.2,0v0h0v0l0.4,0c0,0,0-0.1,0-0.1c0.1,0,0.1,0,0.2,0v0h0.1c0,0,0-0.1,0-0.1h0.4c0,0,0-0.1,0-0.1
				c0.2,0,0.3-0.1,0.5-0.1V76h0.1c0-0.1,0-0.1,0.1-0.1v-0.1h0.1c0-0.1,0-0.1,0.1-0.1c0.1-0.2,0.2-0.2,0.2-0.4h0.1V75
				c0,0,0.1,0,0.1,0v-0.1c0,0,0.1,0,0.1,0v-0.2c0,0,0.1-0.1,0.1-0.1v-0.1h0v-0.1h0v-0.2h0c0-0.1,0-0.1,0.1-0.1v-0.4h0.1
				c0-0.1,0-0.2,0-0.3c0,0,0.1,0,0-0.1h0c0-0.1,0-0.1,0-0.2h0c0-0.1,0-0.2,0-0.3c0,0-0.1,0,0-0.1c0,0,0.1,0,0-0.1h0v-0.2h0
				c0-0.1,0.1-0.1,0-0.2c0,0-0.1,0-0.1-0.1c0,0,0.1,0,0.1,0c0,0,0-0.1,0-0.1h0v-0.1c0-0.1,0.1,0,0,0h0v0h0v0h0v-0.3h0v0h0
				c0-0.1,0-0.2,0-0.2h0c0-0.1,0-0.2,0-0.3h0c0-0.2,0-0.4,0-0.6h0c0,0,0-0.1,0-0.1c0,0-0.1,0,0-0.1c0,0,0.1,0,0-0.1h0
				c0-0.2,0-0.4,0-0.5h0v-0.2h0V69h0v-0.2h0c0-0.1,0-0.2,0-0.3h0c0-0.1,0-0.2,0-0.4h0c0-0.1,0-0.1,0-0.1v-0.1h0c0,0,0-0.1,0-0.1
				c0,0-0.1,0,0-0.1h0v-0.2h0c0-0.1,0-0.1,0-0.2h0v0h0v-0.2h-0.1v-0.3h0v0h0.1v0H37c0-0.1,0.1-0.1,0.1-0.2c0,0,0.1,0.1,0.1,0.1
				c0.1,0,0.1,0,0.2,0v-0.1c0,0,0.1,0.1,0.2,0c0,0,0-0.1,0-0.1h0.1v0h0.1v0c0,0,0.1,0,0.1,0v0.1c0,0,0.1,0,0.1,0c0-0.2,0-0.1,0-0.3
				h0v0c0,0,0.1,0,0,0c0,0-0.1,0,0,0h0.1v0h0v0.1c0.1,0,0.2,0,0.3,0v0c0,0,0.1,0,0.1,0v-0.1h0.1c0,0,0-0.1,0-0.1h0v0
				c0.1,0,0.2,0.1,0.3,0.1v-0.1h0.1V66h0v0c0.2,0,0.2,0,0.2,0.2c0.1-0.1,0.1-0.1,0.3-0.1c0,0,0-0.1,0-0.1h0v0h0
				c0-0.1,0.1-0.1,0.1-0.2c0,0-0.1,0-0.1,0c0-0.1,0-0.1-0.1-0.1c0-0.1,0-0.1,0.1-0.2h0.2c0,0,0,0.1,0,0.1H40v-0.1c0.1,0,0.1,0,0.2,0
				v0.2h0c0,0,0,0.1,0,0.1h-0.1c0,0.1,0,0,0,0.1v0c0.1,0,0.1,0,0.2,0v0h0c0-0.1,0.1-0.1,0.1-0.1v-0.1c0,0,0.1,0,0.1,0
				c0,0,0-0.1,0-0.1h0.2c0,0,0,0.1,0,0.1c0.2,0,0.2-0.1,0.3-0.2h0l0,0.1l0.4-0.3h0v0c0.1,0,0.1,0,0.2,0v0h0v-0.1c0.1,0,0.1,0,0.2,0
				c0-0.2,0.1-0.1,0.1-0.3c0.1,0,0.1,0,0.2-0.1v0.1c0.1,0,0.1,0,0.2,0.1c0,0.1,0,0.1,0,0.2c0.2-0.1,0-0.1,0.1-0.2h0v0
				c0.1,0,0.2,0,0.2,0c0-0.1,0.1-0.1,0.1-0.2h-0.1v-0.1h0.2c0,0.1,0,0,0,0.1v-0.1h0l0.1,0.2l0.3-0.2c0,0,0,0,0.1,0c0,0.1,0,0,0,0.1
				v0c0.1,0,0.1,0,0.2,0v0h0.3v-0.1H44c0-0.1,0-0.1,0-0.2h0.3v0.1h0.1v-0.2c0.1,0,0.3,0,0.4,0v-0.1c0.1,0,0.2-0.1,0.3-0.2h0
				c0,0,0-0.1,0-0.1h0.2v-0.1c0.1,0,0.1,0,0.2,0c0,0.1,0,0,0,0.1v0c0.1,0,0.2-0.1,0.2,0c0.1,0,0,0,0,0.1v-0.1c0.1,0,0.1,0,0.2,0v0
				c0,0,0.1,0,0.1,0c0,0,0.1-0.1,0.1-0.1c0,0,0.1,0.1,0.1,0.1c0.1,0,0.1,0,0.2,0v0c0,0,0.1,0,0.1,0v-0.1c0.1,0,0.2,0,0.3,0
				c0-0.1,0.1-0.1,0.1-0.2h0.1c0,0,0-0.1,0-0.1c0.1,0,0,0,0,0c0,0,0.1,0,0.1,0v0h0c0,0.1,0,0.1-0.1,0.1v0h0.4c0-0.1,0.1-0.1,0.1-0.2
				h0v0c0.1,0,0.1,0,0.1,0h0.2v0h0v0h0.2v-0.1c0.3,0,0.4-0.1,0.7-0.1v-0.1c0.1,0,0,0,0.1,0h0.3c0,0,0.1-0.1,0.1-0.1h0.1v0h0.2
				c0,0,0,0,0.1,0V63c0.1,0,0.1,0,0.2,0v0h0c0-0.2-0.1-0.2-0.2-0.2c0-0.1,0-0.1,0.1-0.2v0h0.1v0c0,0,0.1,0,0.1,0v0h0.1v-0.1
				c0.1,0,0.2,0,0.3,0c0.1,0,0,0.1,0,0v0c0.1,0,0.3-0.1,0.4-0.1v-0.1c0.1,0,0.3,0,0.4,0c0,0,0-0.1,0-0.1C51.7,62,51.8,62,52,62
				c0,0,0-0.1,0-0.1c0.1,0,0.1,0,0.2,0v0h0.1c0,0,0.1-0.1,0.1-0.1h0.2v0c0.1,0,0.1,0,0.2,0c0-0.1,0,0,0-0.1v0h0.1c0,0,0-0.1,0-0.1
				h0.1v0H53c0,0,0-0.1,0-0.1c0,0,0.1,0,0.1,0v0h0.2v0h0v-0.2h0v0c0.1-0.1,0.1,0,0.3,0v-0.2h0v0c0,0-0.1,0-0.1,0v0h0
				c0-0.1,0-0.1,0-0.2c-0.1,0,0,0-0.1,0h0v0h0v0c0.1,0.1,0.2,0,0.4,0c0-0.1,0,0,0-0.1v0h-0.2c0,0,0-0.1,0-0.1c0.1,0,0.2-0.1,0.4-0.1
				V60H54v0.1h0v0h0c0-0.1,0-0.1,0-0.2h0v-0.1l0.1-0.1c0-0.1-0.1-0.2,0-0.2h0.1v0l0.1,0c0-0.1-0.1-0.1-0.1-0.1v-0.1h0.1
				c0,0,0-0.1,0-0.1h0v0h0.2v0h0c0-0.2-0.2-0.5,0-0.6v0L54.2,58.4C54.3,58.4,54.3,58.4,54.2,58.4z M41.5,65.1L41.5,65.1L41.5,65.1
				L41.5,65.1z"/>
			<path d="M10,50.4c2.1-2,4.8-2.9,6.8-5.1c3-1.3,3-4.8,5-7c-0.1-2.6,3-3.6,2.9-6.2c1.8-1.6,3-3.8,4-5.8c2-2,3.6-4.6,5.9-6
				c0.1-0.2,0.1-0.4,0.2-0.5l-21-7.3C11.6,15.7,9.3,19,7,22.3c-0.1,1.7-1.7,2.9-2.1,4.5c-1.2,2.8-3.5,5.3-3.5,8.4
				c-1.5,2.9,0,6.9,0.5,10.1C3,46.7,3,48.8,4.3,50C6.1,50.6,7.9,50.9,10,50.4z"/>
			<path class="st3" d="M41.2,15.3c1.6,1.1,2.1-0.8,3.3-1.2c-1.6-2.3,0.8-4.2,0-6.6c-0.3-1.3-1.9-2.1-2.8-2.9c-2.6-4.2-7-3-11-2.9
				c-2-3.2-4.4,0.2-6.3,1.1c-2,0.9-3.6,2.3-5.4,3.6c-1.6,1-1.7,3.1-3.5,3.6c-0.5,0.8-1.1,1.6-1.6,2.3l21,7.3
				C36.3,17,41.2,19.2,41.2,15.3z"/>
			<path d="M55.8,42.5c-1.6-3.5-4-6.5-6.3-9.6c-1.2-1.5-3.4-2.4-4.2-4l-3.5-2.2c-2.4,0.4-4.7-2-6.9,0.1c-2.3,0.8-4.5,3.5-4.8,6.2
				c0.6,4.9,2,10.1,5,14c1.5,1.7,1.2,4.9,4.1,5.3c-0.3,3.8,3.7,0.4,4.9,2.9c1.3-1.9,3.2,0.8,4.4-1.1l0.6,0.7c1.4,1,0.7-1.3,2-1
				c0.7-1.3,2-1.3,3.3-1.5l-0.1-0.8c1.4-0.4,0.5-1.9,1-2.8c-1.2-0.8,0.8-1.4,0-2.4C57.1,45.2,54.4,43.7,55.8,42.5z"/>
			<path d="M27,85.7c-2.2-1.8-1.1-6.1-4.9-6.1c-1.3,1.1-2.8,2.5-2.3,4.6c0.5,3.9,3.6,7.6,7.4,8.5c3.7,1.3,6.5-1.4,9.2-3.3
				C37.4,83.5,29.9,87.6,27,85.7z"/>
		</g>
		<g>
			<path class="st2" d="M98.1,71.6c-0.7,0.3-1.3,0.5-1.9,0.9c-0.9,0.5-1.9,1-2.9,1.3c-1,0.4-2,0.7-2.7,1.4c-0.4,0.3-0.8,0.8-0.7,1.4
				c0,0.2,0.2,0.7,0.4,0.8c0.5,0.4,1.3,0.6,1.9,0.6c0.6,0,1.2-0.2,1.8-0.3c0.9-0.1,1.8-0.6,2.5-1.2c0.8-0.7,1.5-1.6,1.9-2.6
				C98.6,73.5,98.9,71.3,98.1,71.6z"/>
			<polygon class="st2" points="77.8,48.8 77.9,48.7 77.8,48.7 			"/>
			<path d="M100.2,61.2c-1.2-0.7-1.3,1.4-1.4,2c-0.2,1.7,0.1,3.4,0,5.1c-0.1,3.3-4.3,3.8-6.6,4.8c-0.8,0.4-4.1,2.2-4.6,0.9
				c-0.3-0.8-0.4-1.8-0.5-2.7c-0.2-1.8-0.2-3.7-0.8-5.5c-0.3-0.9-0.8-1.7-1.4-2.5c-0.4-0.6-0.9-1-1.3-1.6c-1.2-1.6-3.4-3.4-5.5-2.4
				c-1.9,1-0.7,3.8-0.5,5.4c0.2,1.5,0.5,2.9,0.7,4.4c0.4,3.4,0.7,8.4,3.8,10.7c1.3,1,3.1,1.5,4.7,1.3c0.8-0.1,1.8-0.3,1.6-1.5
				c0-0.3-0.1-0.8,0.1-1c0.4-0.4,1.3,0,1.7,0.1c0.6,0.2,1.3,0.4,1.9,0.4c1.5,0,3-0.2,4.4-0.9c0.7-0.4,1.4-0.9,2-1.5
				c0.5-0.5,1.2-1.2,1.5-1.9c0.5-1.3,1.2-2.5,1.7-3.7c0.6-1.5,1-2.9,1-4.5c0-0.4,0.1-0.9,0.1-1.4c0-0.4,0-0.7-0.1-1.1
				C102.5,63.2,101.2,61.8,100.2,61.2z M98.5,73.9c-0.3,1-1,1.9-1.9,2.6c-0.8,0.7-1.7,1.1-2.5,1.2c-0.6,0.1-1.2,0.3-1.8,0.3
				c-0.6,0-1.4-0.2-1.9-0.6c-0.2-0.2-0.4-0.6-0.4-0.8c-0.1-0.6,0.3-1,0.7-1.4c0.8-0.7,1.8-1,2.7-1.4c1-0.4,1.9-0.8,2.9-1.3
				c0.6-0.3,1.2-0.6,1.9-0.9C98.9,71.3,98.6,73.5,98.5,73.9z"/>
			<path d="M115.3,52.3c0-0.2,0-0.3,0-0.5l-0.1-0.1l0-0.1l0,0l0-0.2c0,0-0.1,0-0.1-0.1l-0.1,0c0-0.1,0-0.2,0-0.2l0,0
				c-0.1,0-0.1,0-0.2,0l0-0.2c-0.2-0.1-0.2-0.1-0.3-0.2l0-0.1c-0.1,0-0.1-0.1-0.2-0.1l0,0l-0.1,0c0,0-0.1-0.1-0.1-0.1
				c0,0,0-0.1,0-0.1l-0.2,0c0,0,0-0.1,0-0.1c0,0-0.1,0-0.1-0.1l0,0c-0.1,0,0,0-0.1,0c-0.1,0-0.2-0.1-0.3-0.1l0,0l-0.1,0l0,0l-0.1,0
				l0,0c0,0-0.1,0-0.1,0l0,0c-0.1,0-0.1-0.1-0.2-0.1l0-0.1c-0.1,0-0.1-0.1-0.2-0.1c-0.1,0,0,0.1-0.1,0l0,0c0,0-0.1,0-0.1-0.1
				c0,0,0-0.1,0-0.1c-0.1,0-0.2,0-0.2,0c0,0,0-0.1-0.1-0.1c-0.1,0-0.2,0-0.2,0c0-0.1-0.1-0.1-0.1-0.2c0,0-0.2,0-0.3,0l0-0.1
				c-0.1,0-0.1,0-0.2,0c0-0.1,0-0.1,0-0.2l-0.2,0c0-0.1,0-0.1,0-0.2c0-0.1-0.1,0-0.1,0.1c-0.1-0.1,0,0-0.2,0c0,0,0-0.1-0.1-0.1
				c0,0-0.1,0.1-0.1,0.1c0-0.1-0.1-0.1-0.2-0.2l0-0.1l-0.2,0l0,0l-0.2,0l0,0l0,0c0,0,0-0.1,0-0.1l0,0l0,0c-0.1,0-0.1-0.1-0.2-0.1
				c0,0,0-0.1,0-0.1c-0.1,0-0.2,0.1-0.4,0c0,0,0-0.1,0-0.1l-0.1,0l0-0.1l-0.1,0c0,0.1,0,0-0.1,0.1l0,0c-0.1,0-0.1-0.1-0.2-0.1l0,0
				c-0.1,0-0.3-0.1-0.4-0.1c0-0.1,0,0,0-0.1c0-0.1-0.1,0-0.1,0.1c-0.2-0.1-0.2,0-0.4,0l0,0.1c-0.1,0-0.3-0.1-0.4-0.1l0-0.1
				c-0.2-0.1-0.2-0.1-0.3-0.2l0,0.1c-0.1-0.1-0.2-0.1-0.4-0.2l0-0.1c-0.1,0-0.2,0.1-0.2,0.1l0,0l-0.1,0l0,0l-0.3-0.1l0,0
				c-0.1,0-0.1,0-0.2,0c-0.1,0-0.1-0.1-0.2-0.1l-0.2,0l0,0c0,0-0.1,0-0.1-0.1l0,0c0,0-0.1,0-0.1,0l0,0l-0.2,0
				c-0.1-0.1-0.2-0.1-0.3,0l0,0l0-0.1c-0.1,0-0.2,0.1-0.3,0.1c0,0-0.1,0-0.1-0.1l0,0c-0.1,0-0.3-0.1-0.3-0.1c0,0,0,0.1-0.1,0.1
				c0,0,0-0.1,0-0.1c-0.1,0,0,0-0.1,0l-0.1,0l0,0c-0.1,0-0.3-0.1-0.4-0.1l0,0.1c0,0-0.1,0-0.1,0l0,0l-0.3-0.1l0,0l0,0
				c0,0-0.1,0-0.1-0.1l0,0l0,0c0,0-0.1,0-0.1-0.1l0,0l-0.2,0l0,0.1l0,0l0,0c-0.1,0-0.1,0-0.1,0c-0.1,0-0.2-0.1-0.3-0.1
				c0,0,0,0.1-0.1,0.1l-0.2,0l0,0c-0.1,0-0.1,0.1-0.2,0c-0.1,0,0-0.1,0-0.1l0,0l-0.1,0l0,0c-0.1,0-0.1-0.1-0.2-0.1l-0.1,0.1l-0.1,0
				l0,0c-0.1,0-0.1-0.1-0.1-0.1c-0.1,0-0.1,0.1-0.1,0.1l-0.4-0.1c0,0,0,0.1-0.1,0.1c-0.1,0-0.3,0-0.4,0l0,0l-0.1,0l0,0
				c-0.1,0-0.2,0-0.3,0l0,0l-0.1,0l0,0l0,0l0,0l-0.1,0c0,0,0,0.1-0.1,0.1l-0.2,0c0,0,0,0.1-0.1,0.1c-0.1,0-0.1,0-0.3-0.1
				c0,0,0,0.1-0.1,0.1c-0.1-0.1-0.2-0.2-0.4-0.2c0,0,0,0.1-0.1,0.1l-0.1,0l0,0.2l0,0l0-0.1c-0.2,0-0.4,0-0.6,0l-0.1,0.1l-0.1,0l0,0
				c0,0-0.1,0-0.1-0.1l-0.1,0.1c-0.1,0-0.1-0.1-0.2-0.1l0,0l-0.1,0l0,0.1c-0.1,0,0-0.1,0-0.1c-0.1,0-0.1-0.1-0.2-0.1
				c0,0.1,0,0-0.1,0.1l0,0c-0.1-0.1-0.4-0.1-0.7-0.1c0,0,0,0.1-0.1,0.1c-0.2,0-0.2-0.1-0.4-0.1l0,0c0,0-0.1,0-0.1,0l0,0
				c0,0-0.1,0-0.1-0.1c0,0.1,0,0,0,0.1c-0.1,0-0.1,0-0.2,0.1c-0.2,0-0.2-0.1-0.3-0.1l0,0.1c-0.1,0-0.1-0.1-0.2-0.1l0,0.1
				c-0.1,0-0.2,0-0.3,0c0,0,0-0.1,0-0.1c0,0-0.1,0-0.1-0.1c-0.1,0.1-0.2,0.1-0.3,0.1l0-0.1l-0.2,0c0,0.1,0,0-0.1,0.1l0,0
				c-0.1,0-0.1-0.1-0.1-0.1l0,0l0,0.2l0,0l0,0.1c0,0-0.1,0-0.1-0.1c0,0.1,0,0-0.1,0.1c-0.1,0.1-0.2-0.1-0.3,0.1l0,0
				c0-0.1,0.1-0.1,0.1-0.2l0,0l0-0.1l-0.1,0l0,0.1c-0.2,0-0.4,0-0.5,0.1l-0.1,0l0,0l0,0l0,0l-0.1,0l0,0l0,0c0,0.1-0.1,0.1-0.1,0.2
				c-0.1,0-0.1,0-0.2,0.1l-0.2,0c0,0,0.1-0.1,0.1-0.1l0.1,0l0-0.1c0,0-0.1,0-0.1,0l0,0l-0.1,0l-0.1,0.1c-0.1,0-0.1,0-0.2,0
				c0,0,0,0.1-0.1,0.1c-0.1,0-0.1-0.1-0.2-0.1c0,0.1,0,0-0.1,0.1l0,0l0,0l0-0.1c-0.1,0,0,0-0.1,0l0,0l0,0.1l0,0l0,0l0,0l0,0l0,0
				l0-0.1l0.1,0c0,0.1,0,0.1-0.1,0.2l-0.1,0l0-0.1l-0.1,0c0,0.1,0,0-0.1,0.1l0,0c0,0-0.1,0-0.1-0.1l0-0.1c-0.1,0-0.1-0.1-0.2-0.1
				l0,0l-0.2,0c0,0.1-0.1,0.2-0.1,0.2c-0.1,0-0.1,0-0.2,0l-0.1,0c0,0,0,0,0.1-0.1l0-0.1c-0.1,0-0.2,0-0.4,0c0,0.1,0,0.1,0,0.2
				l-0.1,0l0,0.1l0,0l0,0.1c0.1,0,0.1,0,0.2,0c0-0.1,0,0,0.1-0.1l0,0l0,0l0,0.1l0.1,0l0,0l0,0l0,0l0.1,0l0,0l0,0l0,0l0,0l0,0
				c0,0,0.1,0,0.1,0.1c0-0.1,0,0,0.1-0.1l0,0c0.1,0,0.2,0.1,0.3,0.1c0,0,0-0.1,0.1-0.1c0.1,0,0.1,0.1,0.1,0.1l0.2,0l0,0
				c0.1,0,0.2,0.1,0.3,0.1c0-0.1,0,0,0.1-0.1l0,0c0.1,0,0.2,0,0.3,0l0,0.1c-0.2,0-0.1,0-0.3-0.1c0,0,0,0.1-0.1,0.1
				c-0.4-0.1-0.5,0.1-0.9,0l0,0.1l-0.1,0c0,0,0,0.1-0.1,0.1c0,0-0.1,0-0.1,0l0,0l0,0l0,0.1c-0.1,0-0.1-0.1-0.2-0.1l0,0.1
				c-0.1,0-0.2,0-0.2,0c0,0,0-0.1,0-0.1c-0.1,0-0.1,0-0.2,0l0,0.1c-0.1,0-0.2,0-0.3,0c0-0.1-0.1,0-0.1-0.1c0.1,0,0,0,0.1,0l-0.1,0
				c0,0.1,0,0.1,0,0.2c-0.1,0-0.1,0-0.2,0c0,0,0-0.1-0.1-0.1l0,0l-0.2,0c0,0,0,0.1-0.1,0.1l-0.1,0l0,0c-0.1,0-0.1,0-0.2,0
				c0,0.1,0,0-0.1,0.1l0,0c0,0-0.1,0-0.1-0.1l0,0.2l-0.1,0l-0.1,0.1c-0.1,0-0.2-0.1-0.2-0.1l0,0c-0.1,0-0.1-0.1-0.1-0.1
				c-0.1,0,0,0-0.1,0c0,0-0.1,0-0.1-0.1c0,0.1-0.1,0.1-0.1,0.2l-0.1,0l0,0.1c-0.1,0-0.2,0-0.4,0l0,0.1c0-0.1-0.2,0-0.3,0l0,0
				c-0.1,0-0.1-0.1-0.2-0.1l0,0.1l0,0l0-0.1l0,0c0-0.1,0.1,0,0.1-0.1c0-0.1,0.1-0.1,0.1-0.2l0.1,0c0-0.1,0-0.2,0-0.2l0,0
				c0,0,0-0.1,0.1-0.1c0.1,0,0.2,0,0.3,0c0-0.1,0,0,0-0.1l0,0c-0.1,0-0.1,0-0.2,0l0.1-0.3c0,0,0.1,0,0.1,0l0-0.1l-0.1,0
				c0.1-0.2,0.2-0.4,0.3-0.6c0,0,0.1,0,0.1,0c0-0.1,0.1-0.3,0.1-0.4c0,0,0.1,0,0.1,0l0-0.2l0,0c0.1-0.1,0.1-0.2,0.1-0.3l0.1,0
				c0-0.1,0-0.1,0-0.2l0,0l0-0.1c0,0,0.1,0,0.1,0c0-0.1,0-0.2,0-0.3c0.1-0.2,0.2-0.3,0.3-0.6l0.1,0c0-0.1,0.1-0.1,0.1-0.2l0,0
				c0-0.1-0.1-0.1,0-0.2l0,0l0-0.1l0,0c0-0.1,0-0.1,0-0.2l0,0l0-0.1c0,0,0.1,0,0.1,0l0-0.1l0.1,0c0-0.1,0.1-0.1,0.1-0.2
				c0,0,0.1,0,0.1,0c0-0.1,0.1-0.3,0.1-0.4c0-0.1-0.1,0,0-0.1l0.1,0c0.1-0.1,0.1-0.2,0.2-0.4c0.1,0,0,0,0.1,0l0,0c0-0.1,0-0.1,0-0.2
				l0,0l0-0.1l0.1,0l0,0l0,0c0-0.2,0.1-0.1,0.1-0.3l0.1,0c0-0.1,0-0.1,0.1-0.3l0,0l0-0.1l0,0l0.1-0.3l0,0c0-0.1,0.1-0.3,0.1-0.4
				l0.1,0c0.1-0.1,0.1-0.3,0.2-0.4c0,0,0.1,0,0.1,0l0-0.1l0,0c0-0.1-0.1,0-0.1-0.1c0,0,0.1,0,0.1-0.1c0-0.1,0.1-0.1,0.1-0.2l0,0
				l0-0.1c0,0,0.1,0,0.1,0l0-0.1l0,0c0-0.1,0.1-0.1,0.1-0.2l0,0c0-0.1,0-0.2,0-0.2l0.1,0c0,0,0-0.1,0.1-0.1l0.1,0c0-0.1,0-0.2,0-0.3
				l0.1,0c0.1-0.2,0.1-0.3,0.2-0.5l0.1-0.1c0-0.1,0-0.1,0.1-0.2c0,0,0,0-0.1-0.1c0.1,0.2-0.4,0-0.5,0.2c-0.1-0.1-0.2,0.1-0.3,0.1
				c-0.1,0-0.3,0-0.4,0c-0.1,0-0.2,0.1-0.2,0.1c0,0-0.1,0-0.1,0.1c0,0,0,0,0,0c0,0,0,0,0,0c0,0,0,0,0,0c0,0-0.1,0-0.2-0.1
				c-0.1,0.1-0.1,0.1-0.2,0.1c-0.1,0-0.2,0.2-0.3,0.3c-0.2,0-0.2,0-0.3,0.1l-0.1,0l0,0.1c0,0-0.1,0-0.1-0.1l0,0.1c-0.1,0,0,0-0.1,0
				l-0.1,0c-0.1,0,0,0.1,0,0.1c0,0-0.1,0.1-0.1,0.1c-0.2,0-0.2,0-0.4,0l0,0.1l0,0c0,0.1-0.1,0.2-0.2,0.1c0,0,0-0.1-0.1-0.1
				c0,0,0,0.1-0.1,0.1c-0.1,0-0.2,0-0.2,0l0,0l0,0l0,0l-0.4,0c0,0,0,0.1-0.1,0.1c-0.1,0-0.1-0.1-0.2-0.1l0,0l-0.1,0
				c0,0,0,0.1-0.1,0.1l-0.3-0.1c0,0,0,0.1-0.1,0.1c-0.2,0-0.3,0-0.5,0l0,0.1l-0.1,0c-0.1,0.1,0,0.1-0.2,0.1l0,0.1l-0.1,0
				c-0.1,0.1,0,0.1-0.2,0.1c-0.1,0.2-0.2,0.1-0.3,0.3l-0.1,0l0,0.2c0,0-0.1,0-0.1,0l0,0.1c0,0-0.1,0-0.1,0l0,0.2c0,0-0.1,0-0.1,0.1
				l0,0.1l0,0l0,0.1l0,0l0,0.2l0,0c-0.1,0.1,0,0.1-0.2,0.1L84,41.4l-0.1,0c0,0.1,0,0.2-0.1,0.3c0,0-0.1,0-0.1,0.1l0,0
				c0,0.1,0,0.1,0,0.2l0,0c0,0.1-0.1,0.2-0.1,0.3c0,0,0.1,0,0,0.1c0,0-0.1,0-0.1,0.1l0,0l0,0.2l0,0c0,0.1-0.1,0.1-0.1,0.2
				c0,0,0.1,0,0.1,0.1c0,0-0.1,0-0.1,0c0,0,0,0.1,0,0.1l0,0l0,0.1c0,0.1,0,0-0.1,0l0,0l0,0l0,0l0,0l0,0l-0.1,0.3l0,0l0,0l0,0
				c0,0.1,0,0.2,0,0.2l0,0c0,0.1-0.1,0.2-0.1,0.3l0,0c0,0.2-0.1,0.4-0.1,0.6l0,0c0,0,0,0.1-0.1,0.1c0,0,0.1,0.1,0,0.1
				c0,0-0.1,0-0.1,0.1l0,0c0,0.2,0,0.4-0.1,0.5l0,0l0,0.2l0,0l0,0.2l0,0l0,0.2l0,0c0,0.1-0.1,0.2-0.1,0.2l0,0c0,0.1,0,0.2,0,0.4l0,0
				c0,0.1-0.1,0.1-0.1,0.1l0,0.1l0,0c0,0,0,0.1-0.1,0.1c0,0,0.1,0,0,0.1l0,0l0,0.2l0,0c0,0.1,0,0.2,0,0.2l0,0l0,0l0,0l0,0.2l0.1,0
				l-0.1,0.3l0,0l0,0l-0.1,0l0,0l-0.1,0c-0.1,0-0.1,0.1-0.2,0.1c0,0-0.1-0.1-0.1-0.1c-0.1,0-0.1,0-0.2,0l0,0.1c0,0-0.1-0.1-0.2-0.1
				c0,0,0,0.1-0.1,0.1l-0.1,0l0,0l-0.1,0l0,0c0,0-0.1,0-0.1,0l0-0.1c0,0-0.1,0-0.1,0c-0.1,0.2-0.1,0.1-0.1,0.3l0,0l0,0
				c0,0-0.1,0,0-0.1c0,0,0.1,0,0.1,0l-0.1,0l0,0l0,0l0-0.1c-0.1,0-0.2-0.1-0.3-0.1l0,0c0,0-0.1,0-0.1,0l0,0.1l-0.1,0
				c0,0,0,0.1-0.1,0.1l0,0l0,0c-0.1-0.1-0.2-0.1-0.3-0.2l0,0.1l-0.1,0l0,0.1l0,0l0,0c-0.2-0.1-0.2-0.1-0.2-0.3
				c-0.1,0-0.1,0.1-0.3,0.1c0,0,0,0.1-0.1,0.1l0,0l0,0l0,0c-0.1,0.1-0.1,0.1-0.1,0.2c0,0,0.1,0,0.1,0c0,0.1,0,0.1,0.1,0.1
				c0,0.1-0.1,0.1-0.1,0.2l-0.2,0c0,0,0-0.1,0-0.1l-0.1,0l0,0.1c-0.1,0-0.2,0-0.2,0l0-0.2l0,0c0,0,0-0.1,0.1-0.1l0.1,0
				c0-0.1,0,0,0-0.1l0,0c-0.1,0-0.1,0-0.2,0l0,0l0,0c0,0.1-0.1,0.1-0.1,0.1l0,0.1c0,0-0.1,0-0.1-0.1c0,0-0.1,0.1-0.1,0.1l-0.2,0
				c0,0,0.1-0.1,0.1-0.1c-0.2,0-0.3,0-0.3,0.1l0,0v-0.1L78,48.7l0,0l0,0c-0.1,0-0.1,0-0.2,0l0,0l0,0l0,0.1c-0.1,0-0.1-0.1-0.2-0.1
				c-0.1,0.2-0.1,0.1-0.1,0.2c-0.1,0-0.1,0-0.2,0l0-0.1c-0.1-0.1-0.1-0.1-0.2-0.1c0-0.1,0.1-0.1,0.1-0.2c-0.3,0-0.1,0.1-0.2,0.2l0,0
				l0,0c-0.1,0-0.2-0.1-0.2-0.1c-0.1,0.1-0.1,0.1-0.1,0.2l0.1,0l0,0.1l-0.2,0c0-0.1,0,0,0-0.1l0,0.1l0,0l0-0.2L76,48.8
				c0,0,0,0-0.1-0.1c0-0.1,0,0,0-0.1l0,0c-0.1,0-0.2,0-0.2,0l0,0l-0.3-0.1l0,0.1l-0.1,0c0,0.1-0.1,0.1-0.1,0.2l-0.3-0.1l0-0.1
				l-0.1,0l0,0.2c-0.1,0-0.3-0.1-0.4-0.1l0,0.1c-0.1,0-0.3,0-0.3,0.1l0,0c0,0,0,0.1,0,0.1l-0.2,0l0,0.1c-0.1,0-0.1,0-0.2,0
				c0-0.1,0,0,0-0.1l0,0c-0.1-0.1-0.2,0-0.2,0c0-0.1,0,0,0-0.1l0,0.1c-0.1,0-0.2,0-0.2,0l0,0c0,0-0.1,0-0.1-0.1c0,0-0.1,0.1-0.1,0.1
				c-0.1,0,0-0.1-0.1-0.1c-0.1,0-0.1,0-0.2,0l0,0c0,0-0.1,0-0.1-0.1l0,0.1c-0.1,0-0.2-0.1-0.2-0.1c-0.1,0.1-0.1,0.1-0.1,0.2l-0.1,0
				c0,0,0,0.1-0.1,0.1c-0.1,0,0,0,0-0.1c0,0-0.1,0-0.1,0l0,0l0,0c0.1,0,0,0,0.1-0.1l0,0l-0.3-0.1c-0.1,0-0.1,0.1-0.2,0.1l0,0l0,0
				c-0.1,0-0.1,0-0.1,0l-0.2,0l0,0l0,0l0,0l-0.2,0l0,0.1c-0.3,0-0.4,0-0.7,0l0,0.1c-0.1,0,0,0-0.1-0.1l-0.3-0.1c0,0-0.1,0.1-0.1,0.1
				l-0.1,0l0,0l-0.2,0c0,0,0,0-0.1,0l0,0.1c-0.1,0-0.1,0-0.2,0l0,0l0,0c0,0.2,0,0.2,0.2,0.2c0,0.1,0,0.1-0.1,0.2l0,0l-0.1,0l0,0
				c0,0-0.1,0-0.1,0l0,0l-0.1,0l0,0.1c-0.1,0-0.2,0-0.3,0c-0.1,0,0,0,0-0.1l0,0c-0.2,0-0.3,0-0.5,0l0,0.1c-0.1,0-0.3,0-0.4-0.1
				c0,0,0,0.1-0.1,0.1c-0.1,0.1-0.2,0-0.4,0c0,0,0,0.1,0,0.1c-0.1,0-0.1,0-0.2,0l0,0l-0.1,0c0,0-0.1,0.1-0.1,0.1l-0.2,0l0,0
				c-0.1,0-0.1,0-0.2,0c0,0.1,0,0,0,0.1l0,0l-0.1,0c0,0,0,0.1-0.1,0.1l-0.1,0l0,0l-0.1,0c0,0,0,0.1-0.1,0.1c0,0-0.1,0-0.1-0.1l0,0
				l-0.2,0l0,0l0,0l0,0.2l0,0l0,0c-0.2,0-0.1,0-0.3-0.1l0,0.2l0,0l0,0c0,0,0.1,0,0.1,0l0,0l0,0c0,0.1-0.1,0.1-0.1,0.2
				c0.1,0,0,0,0.1,0.1l0,0l0,0l0,0l0,0c-0.1-0.1-0.2-0.1-0.3-0.1c0,0.1,0,0-0.1,0.1l0,0l0.2,0c0,0-0.1,0.1-0.1,0.1
				c-0.1,0-0.3,0-0.4,0.1l0-0.1l0.1,0l0-0.1l0,0l0,0l0,0c0,0,0,0.1-0.1,0.2l0,0l0,0.1l-0.2,0.1c-0.1,0.1,0,0.2,0,0.2l-0.1,0l0,0
				l-0.1,0c-0.1,0.1,0.1,0.1,0.1,0.2l0,0.1l-0.1,0c0,0,0,0.1,0,0.1l0,0l0,0l-0.2,0l0,0l0,0c0,0.2,0.1,0.5-0.2,0.6l0,0l0.3,0.1
				c0,0,0-0.1,0.1-0.1l0.1,0.1l0,0c0.1,0,0.2,0,0.3,0c0,0,0-0.1,0.1-0.1l0.5,0.1l0,0c0,0,0.1,0,0.1,0.1l0,0l0.1,0l0,0l0,0l0,0l0.2,0
				l0,0l0.4,0.1l0,0l0.3,0.1l0,0c0.1,0,0.2,0.1,0.2,0.1l0,0l0.1,0l0,0c0.1,0,0.2,0.1,0.3,0.1l0,0c0.1,0,0.1,0,0.2,0l0-0.1l0.1,0
				l0,0.1l0,0c0,0,0-0.1,0.1,0c0,0,0,0.1,0.1,0.1l0,0l0.1,0l0,0c0.1,0,0.3,0.1,0.3,0.1c0,0,0-0.1,0.1-0.1c0,0.1,0.1,0.1,0.2,0.1l0,0
				l0.2,0l0,0c0.1,0,0.1,0.1,0.2,0.1l0,0l0.1,0l0,0l0.3,0.1l0,0c0,0,0.1,0,0.1,0.1c0,0,0-0.1,0.1-0.1c0,0.1,0.1,0.1,0.1,0.2
				c0,0,0-0.1,0.1-0.1c0.2,0,0.3,0,0.5,0.1c0.1,0,0,0.1,0,0.1l0,0l0.2,0l0,0l0.2,0l0,0l0,0l0,0l0.1,0l0,0c0,0,0.1,0,0.1,0.1l0,0
				c0.1,0,0.2,0,0.4,0l0,0l0.1,0l0,0l0.3,0.1l0,0c0,0,0.1,0,0.1,0.1c0.1,0,0.1,0,0.2,0l0,0l0,0c0,0,0-0.1,0.1,0l0,0l0,0l0-0.1
				c0.1,0,0,0,0.1,0l0,0c0,0,0,0.1-0.1,0.1c0.1,0,0.2,0,0.2,0l0,0c0.1,0,0.1,0.1,0.2,0.1c0,0,0-0.1,0.1-0.1c0,0,0.1,0,0.1,0.1l0-0.1
				c0.1,0,0.3,0.1,0.4,0.1l0-0.1c0.1,0,0.2,0.1,0.2,0.1l0-0.1c0.1,0.1,0.1,0.1,0.2,0.2l0-0.1l0.1,0c0,0,0-0.1,0.1-0.1
				c0,0,0.1,0.1,0.2,0.1c0,0,0-0.1,0.1-0.1c0,0,0.1,0.1,0.2,0.1l0,0l0.1,0l0,0c0,0,0.2,0.1,0.3,0.1c0,0,0-0.1,0.1-0.1
				c0,0,0.1,0,0.1,0.1l0,0l0.1,0l0,0l0,0l0,0c0.1,0,0.1,0,0.1,0l0.2,0l0-0.2l0,0l0,0c0,0-0.1,0-0.1,0c0-0.1,0,0,0.1-0.1l0,0l0.1,0
				c0,0.1,0,0.2,0,0.3c0,0,0.1,0,0.1,0c0,0,0,0.1,0.1,0.1c0,0,0.1-0.1,0.1-0.1l0.1,0l0,0l0,0l0,0l0.3,0.1l0,0l0.1,0l0,0l0,0l0,0
				c0,0,0.1,0,0.1,0l0,0l0.3,0.1c0,0,0-0.1,0.1-0.1c0,0,0.1,0,0.1,0.1l0,0l0.1,0c0,0,0-0.1,0.1-0.1c0,0,0,0,0.1,0.1c0,0,0-0.1,0.1,0
				c0,0,0,0.1,0.1,0.1c0,0,0-0.1,0.1,0l0,0c0.1,0,0.2,0,0.3,0l0,0c0.2,0,0.4,0,0.6,0.1l0-0.2l0,0l0,0l0.1,0l0,0.1
				c0.2,0,0.2,0,0.4,0.1l0-0.2l0,0l0,0l0.1,0l0,0l0.2,0l0,0l0,0c0,0-0.1,0.1-0.1,0.2l0,0l0,0c0.2,0,0.4,0,0.6,0c0,0,0.1-0.1,0.1-0.1
				c0,0,0.1,0,0.1,0l0,0l0.2,0c0.1,0,0,0,0,0.1c0,0,0-0.1,0.1-0.1c0,0,0.1,0,0.1,0l0,0l0,0c0,0.1-0.1,0.2,0.1,0.2l0,0
				c0,0,0.1,0,0.1,0l0,0c0.1,0,0.1,0.1,0.1,0.1l0,0l0,0l0.1,0l0,0c0,0,0.1,0,0.1,0.1l0,0l0.2,0l0,0l0.3,0.1l0,0
				c0.1,0,0.1,0.1,0.2,0.1l0,0c0,0,0.1,0,0.1,0l0,0c0,0,0.1,0.1,0.2,0.1l0-0.1c0.1,0,0.2,0.1,0.2,0.1l0,0l0.1,0l0,0l0.3,0.1
				c0,0,0-0.1,0.1-0.1l0.1,0l0,0c0.1,0,0.1,0.1,0.1,0.1l0,0l0,0l0.3,0.1c0,0,0-0.1,0.1-0.1c0,0,0.1,0.1,0.2,0.1c0,0,0.1-0.1,0.1-0.1
				l0.1,0c0.1,0,0.2,0.1,0.3,0.1l0-0.1c0.1,0,0.1,0,0.2,0l0-0.1l0.1,0l0,0c0.1,0.1,0,0.1,0.1,0.2l0-0.1c0.2,0,0.2,0,0.3,0.1l0-0.1
				c0.1,0,0.2,0,0.2,0l0,0l0,0l0,0l0.1,0l0,0l0,0l0,0l0.3,0.1c0,0,0.1-0.1,0.1-0.1l0.1,0l0,0l0.4,0.1c0,0,0-0.1,0.1-0.1
				c0,0,0.1,0,0.1,0.1l0,0c0.1,0,0.2,0,0.3,0c0,0,0-0.1,0.1-0.1c0.1,0,0.3,0,0.4,0.1c0-0.1,0,0,0.1-0.1c0.2-0.1,0.4,0.1,0.7,0.1l0,0
				l0.2,0l0,0l0.1,0l0,0l0.2,0c0,0,0-0.1,0.1-0.1c0,0,0.1,0,0.1,0.1c0.1,0,0-0.1,0.1,0l0,0.1l0,0c0,0,0-0.1,0.1-0.1l0,0l0,0l0,0
				c0.1-0.1,0.3,0.1,0.5,0.1l0,0l0.1,0c0,0,0-0.1,0.1-0.1l0.1,0l0,0l0.3,0.1l0,0c0.1,0,0.3,0,0.4,0l0,0l0.3,0.1l0,0l0.1,0l0,0
				c0,0,0.1,0,0.1,0.1l0,0c0.2,0,0.3,0,0.5,0.1l0-0.1c0.1,0,0.1,0.1,0.3,0.1l0,0l0.2,0l0,0l0.4,0.1l0,0l0.1,0l0,0c0,0,0.1,0,0.1,0.1
				l0,0l0.1,0c0,0,0.1-0.1,0.1-0.1c0.1,0,0.1,0.1,0.2,0.1l0,0c0.1,0,0.2,0,0.3,0l0-0.1c0.1,0,0.1,0.1,0.2,0.1c0,0,0-0.1,0.1-0.1
				c0,0,0.1,0,0.1,0.1l0.1-0.1c0.1,0,0.3,0,0.4,0.1l0,0l0.1,0l0,0c0,0,0.1,0,0.1,0l0,0.1c0,0,0.1,0,0.1,0l0,0c0,0,0.1,0,0.1,0.1
				c0,0,0-0.1,0.1-0.1l0.1,0l0,0c0.1,0,0.2,0.1,0.3,0.1c0,0,0-0.1,0.1-0.1l0,0l0,0c0.1,0,0.1-0.1,0.1-0.1l0.2,0l0,0.1
				c0,0,0.1,0,0.1,0.1c0,0,0-0.1,0.1-0.1l0,0l0,0l0,0l0,0c0.1,0,0.2,0,0.3,0l0,0l0.2,0l0,0l0.2,0c0,0,0-0.1,0.1-0.1
				c0.1,0,0.2,0.1,0.2,0.1l0-0.1c0.1,0,0.2,0,0.2,0l0,0l0.1,0c0-0.1,0,0,0.1-0.1l0,0c0.1,0,0.1,0.2,0.2,0.1l0,0c0,0,0.2,0,0.1,0l0,0
				l0,0c0.2,0.1,0.1,0.1,0.2,0.1c0-0.1,0-0.1,0.1-0.2c0.1,0,0.2,0.1,0.3,0.1c0-0.1,0,0,0.1-0.1l0,0c0,0,0.1,0.1,0.2,0.1l0,0l0.1,0
				l0,0l0.1,0l0,0l0.3,0.1l0,0l0.1,0l0,0c0,0,0.1,0.1,0.3,0.1l0,0l0.1,0l0,0l0.3,0.1l0,0l0.2,0l0,0l0.2,0c0,0,0-0.1,0.1-0.1
				c0.1,0,0.1,0.1,0.1,0.1c0.1,0,0.1,0,0.2,0l0,0l0,0c0,0,0.1-0.1,0.1-0.1c0.1,0,0.1,0.1,0.2,0.1l0,0l0.2,0l0,0c0,0,0,0,0.1,0.1
				c0.1-0.1,0.2-0.1,0.3-0.2c0.1,0,0.3,0.1,0.4,0.1l0,0c0.1,0,0.2,0,0.2,0l0-0.1c0.1,0,0.1,0.1,0.2,0.1c0,0,0-0.1,0.1-0.1
				c0,0,0.1,0,0.1,0.1c0,0,0-0.1,0.1-0.1c0.1,0,0.2,0.1,0.3,0.1l0,0l0.1,0l0,0l0,0l0,0c0.1,0,0.1,0,0.1,0c0,0,0.1,0,0.1,0.1l0,0
				l0.1,0l0,0c0,0,0.1,0,0.1,0c0,0.1,0,0,0.1,0.1c0,0,0-0.1,0.1-0.1l0.3,0.1c0,0,0,0.1,0.1,0.1c0.1,0,0.1-0.1,0.2-0.1
				c0.1,0,0.1,0.1,0.2,0.1l0,0l0.2,0l0,0l0.1,0l0,0c0,0,0.1,0,0.1,0l0,0.1c0.2,0,0.2,0,0.3,0l0,0c0.1,0,0.2,0.1,0.2,0.1
				c0,0,0-0.1,0.1-0.1c0.1,0,0.1,0,0.2,0c0,0,0-0.1,0.1-0.1c0.1,0,0,0.1,0.1,0.1c0.1,0,0.2,0,0.3,0c0.1,0,0,0.1,0.2,0.1l0,0l0.1,0
				l0,0c0.2,0,0.3,0,0.4,0.1l0-0.1c0.1,0,0.2,0,0.2,0s0,0.1,0.1,0.1c0,0,0-0.1,0.1-0.1l0.3,0.1c0,0,0-0.1,0.1-0.1
				c0.2,0,0.1,0.1,0.2,0.1l0,0l0.1,0l0,0l0.1,0l0,0c0.1,0,0.1,0.1,0.2,0.1c0,0,0-0.1,0.1-0.1c0.1,0,0.3,0.1,0.3,0.1
				c0-0.1,0,0,0.1-0.1l0,0c0,0,0.2,0.1,0.3,0.1c0,0,0-0.1,0.1-0.1c0.1,0,0.1,0.1,0.2,0.1c0,0,0.1-0.1,0.1,0c0,0,0,0.1,0.1,0.1l0,0
				l0,0c0,0,0,0.1,0,0.1c0.1,0,0.1,0,0.2,0l0-0.1c0,0,0.1-0.1,0.1-0.1l0,0l0,0l0.1,0l0,0c0.1,0,0.1,0.1,0.2,0.1l0-0.1l0.1,0
				c0,0,0,0.1,0,0.1c0.1,0,0.3,0,0.4,0.1l0-0.1l0.1,0l0,0.1c0.1,0,0,0,0.1,0.1c0.1,0,0.1,0,0.2,0l0-0.1l0,0c0.1,0,0.1-0.1,0.1-0.2
				l0.2,0.1l0-0.1c0.1,0,0.1,0.1,0.2,0.1l0,0.1l0.2,0l0-0.1c0.1,0,0,0,0.1,0.1c0.2,0,0.2,0,0.3-0.1c0.1,0,0.4,0.1,0.4,0.1l0,0
				c0.1,0,0.2,0,0.4,0l0,0c0.1,0,0.2,0.2,0.3,0.2c0,0,0-0.1,0.1-0.1l0.2,0c0,0,0-0.1,0.1-0.1l0.1,0l0,0l0.1,0l0,0l0.2,0l0,0l0.2,0
				l0,0c0.1,0,0.3,0.1,0.4,0.1c0.1-0.1,0.1-0.2,0.2-0.3l0.1,0l0,0.1c0.2,0,0.1,0,0.2,0.1l0,0l0-0.1c0-0.1,0.1,0,0.1,0
				c0,0-0.1,0,0-0.1l0,0l0-0.1c0,0,0.1,0,0.1-0.1c0,0-0.1,0-0.1-0.1l0-0.1l0,0c0-0.1,0.1-0.1,0.1-0.2c0,0,0.1,0,0.1,0
				c0-0.1,0-0.2,0-0.3l0.1,0c0-0.1,0.1-0.1,0.1-0.2l0,0l0-0.2l0,0C115.3,52.4,115.4,52.4,115.3,52.3L115.3,52.3z M77.8,48.8
				L77.8,48.8L77.8,48.8L77.8,48.8z"/>
			<path d="M83.8,15c1.2,1.5,3.2,0.9,4.7,1.7c3.5,0,5.6,3.5,9.1,3.2c1.1,1.3,2.7,1.5,3.9,2.2c1.6,0.6,2,2.5,2.5,3.9
				c0.9,1.4,0.3,3.8,0.5,5.2c-1,2.3-0.1,1.6-1.1,3.9c-1.1,2.8-1.7,1.8-2.3,4.9c0.4,0.9,1.5,0.3,2.2,0.5c1.8-2,1.8-1.1,3.3-3.4
				c0.5-2.1,2.4-5.4,2.9-6.9c1.1-4,2.9-8.4,1.5-12.8c1-1.7-1.8-2.7-0.5-4.5c-0.6-0.7-0.9-1.6-2-1.7c-2.6-2.7-5.4-4.6-8.9-5.2
				c-0.5-0.3-0.9-0.5-1.4-0.7l-18.7,8.8C80.9,14.6,82.3,14.9,83.8,15z"/>
			<path class="st4" d="M72.2,7.6c1.5,0.9,0.9,2.8,1.7,3.9c1.8,1.2,3.6,2.1,5.6,2.7l18.7-8.8c-3.8-1.9-7.9-3.3-12.2-4l-2-1
				c-4.1,0-7.4-0.2-10.6,1.7C73.7,4.3,71.8,5.4,72.2,7.6z"/>
		</g>
	</g>
</g>
</svg>
